SplineFontDB: 3.0
FontName: Alegreya-Regular
FullName: Alegreya
FamilyName: Alegreya
Weight: Regular
Copyright: Copyright (c) 2011, Juan Pablo del Peral (juan@huertatipografica.com.ar), with Reserved Font Names "Alegreya" "Alegreya SC"\nSome characters (2300, 266d, 266f) modified 2016.
Version: 001.001
ItalicAngle: 0
UnderlinePosition: -60.416
UnderlineWidth: 57.344
Ascent: 819
Descent: 205
InvalidEm: 0
sfntRevision: 0x000100c5
LayerCount: 2
Layer: 0 0 "Back" 1
Layer: 1 0 "Fore" 0
XUID: [1021 94 324875875 1203449]
FSType: 0
OS2Version: 2
OS2_WeightWidthSlopeOnly: 0
OS2_UseTypoMetrics: 1
CreationTime: 1325707245
ModificationTime: 1609251570
PfmFamily: 17
TTFWeight: 400
TTFWidth: 5
LineGap: 0
VLineGap: 0
Panose: 2 0 5 3 5 0 0 2 0 4
OS2TypoAscent: 1040
OS2TypoAOffset: 0
OS2TypoDescent: -353
OS2TypoDOffset: 0
OS2TypoLinegap: 0
OS2WinAscent: 1040
OS2WinAOffset: 0
OS2WinDescent: 353
OS2WinDOffset: 0
HheadAscent: 1040
HheadAOffset: 0
HheadDescent: -353
HheadDOffset: 0
OS2SubXSize: 717
OS2SubYSize: 666
OS2SubXOff: 0
OS2SubYOff: 143
OS2SupXSize: 717
OS2SupYSize: 666
OS2SupXOff: 0
OS2SupYOff: 488
OS2StrikeYSize: 51
OS2StrikeYPos: 256
OS2FamilyClass: 258
OS2Vendor: 'pyrs'
OS2CodePages: 20000093.00000000
OS2UnicodeRanges: a00000ef.4000204b.00000000.00000000
Lookup: 258 0 0 "'kern' Horizontal Kerning lookup 0" { "'kern' Horizontal Kerning lookup 0 subtable"  } ['kern' ('DFLT' <'dflt' > ) ]
MarkAttachClasses: 1
DEI: 91125
LangName: 1033 "" "" "" "FONTLAB:OTFEXPORT" "" "Version 1.003" "" "Alegreya is a trademark of Juan Pablo del Peral" "Juan Pablo del Peral" "Juan Pablo del Peral" "" "www.huertatipografica.com.ar" "www.huertatipografica.com.ar" "This Font Software is licensed under the SIL Open Font License, Version 1.1. This license is available with a FAQ at: http://scripts.sil.org/OFL" "http://scripts.sil.org/OFL"
Encoding: UnicodeFull
Compacted: 1
UnicodeInterp: none
NameList: Adobe Glyph List
DisplaySize: -36
AntiAlias: 1
FitToEm: 1
WinInfo: 0 42 14
BeginPrivate: 6

StartChar: B
Encoding: 66 66 0
Width: 611
Flags: HMW
HStem: -12 22G<59 59> -10 52<292 376 292 379> 0 22G<151 202> 588 20G<102 124> 612 44<245 378> 632 20G<173 211>
VStem: 145 75 432 83<467 527> 467 88<134 206>
LayerCount: 2
Fore
SplineSet
176 0 m 0x3b
 125 0 59 -12 59 -12 c 1
 66 35 l 1
 129 47 145 66 145 123 c 2
 146 553 l 2
 146 597 140 608 109 608 c 0
 97 608 74 606 74 606 c 1
 72 610 l 1
 79 655 l 1
 79 655 154 652 193 652 c 0x97
 231 652 313 656 313 656 c 1
 443 656 515 601 515 501 c 0x5b
 515 433 472 376 396 343 c 1
 495 321 555 263 555 187 c 0
 555 81 443 -10 314 -10 c 0x5a80
 269 -10 228 0 176 0 c 0x3b
329 307 m 1
 222 305 l 1
 218 114 l 1
 218 62 250 42 335 42 c 0x5b
 417 42 467 91 467 169 c 0
 467 243 420 291 329 307 c 1
224 359 m 1
 224 359 321 351 336 351 c 1
 336 351 432 373 432 483 c 0
 432 571 375 612 252 612 c 0
 238 612 234 607 233 589 c 0
 229 522 226 444 224 359 c 1
EndSplineSet
Validated: 1
EndChar

StartChar: C
Encoding: 67 67 1
Width: 644
Flags: HMW
HStem: -12 51<297 408> 604 60<295 409>
VStem: 41 92<248 408>
LayerCount: 2
Fore
SplineSet
347 -12 m 0
 161 -12 41 110 41 304 c 0
 41 512 191 665 398 665 c 0
 483 665 577 640 577 640 c 1
 581 634 l 1
 581 634 561 557 555 463 c 1
 506 459 l 1
 506 459 509 486 509 509 c 0
 509 572 458 604 358 604 c 0
 221 604 133 501 133 338 c 0
 133 158 227 39 368 39 c 0
 461 39 516 90 542 201 c 1
 591 205 l 1
 591 205 570 112 563 38 c 1
 557 29 l 1
 557 29 469 -12 347 -12 c 0
EndSplineSet
Validated: 1
EndChar

StartChar: D
Encoding: 68 68 2
Width: 719
Flags: HMW
HStem: -12 52<325 422 296 424> 0 22G<152 203> 588 20G<102 124> 606 50<342 372> 632 20G<167 210>
VStem: 145 74<97 123> 145 89
LayerCount: 2
Fore
SplineSet
325 -12 m 1x94
 325 -12 229 0 177 0 c 0x54
 126 0 59 -12 59 -12 c 1
 66 35 l 1
 129 47 145 66 145 123 c 2
 146 553 l 2
 146 597 140 608 109 608 c 0xac
 97 608 74 606 74 606 c 1x94
 72 610 l 1
 79 655 l 1
 79 655 147 652 186 652 c 0xac
 233 652 342 656 342 656 c 1
 542 656 679 532 679 350 c 0
 679 146 524 -12 325 -12 c 1x94
271 606 m 0
 242 606 235 602 234 584 c 0x92
 225 347 219 180 219 134 c 0
 219 59 245 40 348 40 c 0
 495 40 586 149 586 326 c 0
 586 506 473 606 271 606 c 0
EndSplineSet
Validated: 1
EndChar

StartChar: E
Encoding: 69 69 3
Width: 605
Flags: HMW
HStem: -10 22G<59 59> 0 46<163 380> 310 51<314 329> 588 20G<102 124> 601 51<271 303 190 376> 644 20G<528 528>
VStem: 145 83
LayerCount: 2
Fore
SplineSet
218 108 m 0x6a
 218 53 225 46 299 46 c 0
 461 46 481 58 497 171 c 1
 542 176 l 1
 545 171 l 1
 545 171 526 86 517 -1 c 1
 512 -7 l 1
 512 -7 299 0 202 0 c 0x6a
 124 0 59 -10 59 -10 c 1
 66 37 l 1
 127 45 145 65 145 123 c 2
 146 553 l 2
 146 597 140 608 109 608 c 0xb6
 97 608 74 606 74 606 c 1
 72 610 l 1
 79 655 l 1
 79 655 160 652 221 652 c 0x6a
 384 652 460 656 528 665 c 1x76
 531 658 l 1
 531 658 514 582 508 488 c 1
 459 484 l 1
 459 484 461 514 461 528 c 0
 461 595 448 601 304 601 c 0
 237 601 233 599 232 561 c 2
 224 362 l 1
 247 362 299 361 330 361 c 0
 367 361 455 373 455 373 c 1
 459 368 l 1
 444 307 l 1
 444 307 356 310 301 310 c 0
 270 310 239 306 222 303 c 1
 219 192 218 142 218 108 c 0x6a
EndSplineSet
Validated: 1
EndChar

StartChar: F
Encoding: 70 70 4
Width: 524
Flags: HMW
HStem: -12 22G<59 59> 0 45<151 273> 292 52<286 346> 588 20G<102 124> 601 51<271 291 190 367> 644 20G<509 509>
VStem: 145 83
LayerCount: 2
Fore
SplineSet
218 115 m 1x6a
 218 60 227 45 263 45 c 0
 283 45 336 48 336 48 c 1
 338 44 l 1
 329 -4 l 1
 329 -4 231 0 176 0 c 0x6a
 125 0 59 -12 59 -12 c 1
 66 35 l 1
 129 47 145 66 145 123 c 2
 146 553 l 2
 146 597 140 608 109 608 c 0xb6
 97 608 74 606 74 606 c 1
 72 610 l 1
 79 655 l 1
 79 655 160 652 221 652 c 0x6a
 361 652 444 656 509 665 c 1x76
 512 658 l 1
 512 658 494 579 488 485 c 1
 439 481 l 1
 439 481 441 514 441 528 c 0
 441 595 429 601 304 601 c 0
 237 601 233 599 232 561 c 2
 224 345 l 1
 330 344 l 2
 362 344 437 355 437 355 c 1
 441 350 l 1
 427 289 l 1
 427 289 349 292 301 292 c 0
 270 292 239 288 222 285 c 1
 218 115 l 1x6a
EndSplineSet
Validated: 1
EndChar

StartChar: G
Encoding: 71 71 5
Width: 683
Flags: HMW
HStem: -12 51<293 404 293 405> 258 51<377 536> 604 60<299 431>
VStem: 41 89<247 411>
LayerCount: 2
Fore
SplineSet
602 314 m 1
 606 292 l 1
 581 272 574 235 574 134 c 0
 574 98 578 61 582 44 c 1
 575 35 l 1
 575 35 470 -12 340 -12 c 0
 158 -12 41 110 41 304 c 0
 41 518 186 665 400 665 c 0
 485 665 599 640 599 640 c 1
 603 634 l 1
 603 634 583 557 577 463 c 1
 528 459 l 1
 528 459 531 486 531 514 c 0
 531 577 486 604 377 604 c 0
 221 604 130 507 130 337 c 0
 130 157 223 39 364 39 c 0
 446 39 504 78 504 78 c 1
 504 203 l 2
 504 249 493 258 447 258 c 2
 377 258 l 1
 375 262 l 1
 384 313 l 1
 384 313 454 309 514 309 c 0
 558 309 602 314 602 314 c 1
EndSplineSet
Validated: 1
EndChar

StartChar: H
Encoding: 72 72 6
Width: 772
Flags: HMW
HStem: -12 22G<59 59> 0 45<185 273> 309 47<396 416> 608 44 641 20G<302 302 705 705>
VStem: 145 82 548 73<154 157 87 308> 548 87
LayerCount: 2
Fore
SplineSet
635 557 m 0x6d
 628 407 621 200 621 115 c 0
 621 60 630 45 666 45 c 0
 686 45 712 48 712 48 c 1
 714 44 l 1
 705 -3 l 1
 705 -3 624 0 579 0 c 0
 543 0 461 -2 461 -2 c 1
 470 44 l 1
 535 45 548 64 548 154 c 2
 548 308 l 1
 548 308 439 309 392 309 c 0
 359 309 222 298 222 298 c 1
 218 115 l 1
 218 60 227 45 263 45 c 0
 283 45 309 48 309 48 c 1
 311 44 l 1
 302 -3 l 2
 302 -2 251 0 215 0 c 0x76
 156 0 61 -7 59 -12 c 1
 66 35 l 1
 129 47 145 66 145 123 c 2
 146 553 l 2
 146 597 140 608 109 608 c 0
 97 608 74 606 74 606 c 1
 72 610 l 1
 79 655 l 1
 79 655 154 652 193 652 c 0xb6
 237 652 302 662 302 662 c 1x6e
 298 615 l 1
 239 606 233 595 230 523 c 2
 224 357 l 1
 396 356 l 2
 447 356 488 360 548 367 c 1
 549 553 l 2
 549 597 542 608 511 608 c 0
 499 608 476 606 476 606 c 1
 474 610 l 1
 481 655 l 2
 481 654 549 652 582 652 c 0x76
 631 652 705 662 705 662 c 1
 700 615 l 1
 649 608 637 596 635 557 c 0x6d
EndSplineSet
Validated: 1
EndChar

StartChar: I
Encoding: 73 73 7
Width: 369
Flags: HMW
HStem: -12 22G<57 57> 0 45 608 44 641 20G<310 310>
VStem: 145 73<94 123> 145 87
LayerCount: 2
Fore
SplineSet
232 557 m 0x54
 225 409 218 200 218 115 c 0
 218 60 227 45 263 45 c 0
 288 45 317 48 317 48 c 1
 319 44 l 1
 310 -3 l 1
 310 -3 224 0 176 0 c 0x68
 124 0 57 -12 57 -12 c 1
 63 35 l 1
 128 47 145 66 145 123 c 2
 146 553 l 2
 146 596 140 608 109 608 c 0
 94 608 66 606 66 606 c 1
 63 610 l 1
 71 655 l 1
 71 655 151 652 193 652 c 0xa8
 240 652 310 662 310 662 c 1
 306 615 l 1
 249 608 234 596 232 557 c 0x54
EndSplineSet
Validated: 1
EndChar

StartChar: J
Encoding: 74 74 8
Width: 334
Flags: HMW
HStem: -147 22G<41 41> 607 45<47 165 91 113> 641 20G<284 284>
VStem: 134 74<118 118>
LayerCount: 2
Fore
SplineSet
134 118 m 2xb0
 135 553 l 2
 135 597 128 607 97 607 c 0
 85 607 49 603 49 603 c 1
 47 607 l 1
 54 652 l 1
 165 652 l 2xd0
 209 652 284 662 284 662 c 1
 280 615 l 1
 232 608 223 600 221 557 c 0
 217 466 209 203 208 119 c 0
 207 -20 157 -100 41 -147 c 1
 24 -114 l 1
 27 -105 l 1
 110 -55 134 -5 134 118 c 2xb0
EndSplineSet
Validated: 1
EndChar

StartChar: K
Encoding: 75 75 9
Width: 643
Flags: HMW
HStem: -14 22G<525 547> 0 45 608 44 641 20G<302 302>
VStem: 145 79
LayerCount: 2
Fore
SplineSet
145 123 m 2x58
 146 553 l 2
 146 597 140 608 109 608 c 0
 97 608 74 606 74 606 c 1
 72 610 l 1
 79 655 l 1
 79 655 154 652 193 652 c 0xa8
 237 652 302 662 302 662 c 1
 298 615 l 1
 247 607 231 593 230 554 c 2
 218 115 l 2
 217.851 110.91 217.774 107.041 217.774 103.382 c 0
 217.774 57.8519 229.677 45 263 45 c 0
 283 45 309 48 309 48 c 1
 311 44 l 1
 302 -3 l 1
 302 -3 221 0 176 0 c 0
 125 0 58 -1 58 -1 c 1
 69 45 l 1
 132 51 145 65 145 123 c 2x58
248 323 m 1
 249 337 l 1
 432 527 l 2
 454 549 464 567 464 581 c 0
 464 598 443 608 399 611 c 1
 397 615 l 1
 404 659 l 1
 404 659 479 652 517 652 c 0
 557 652 611 656 611 656 c 1
 615 649 l 1
 608 607 l 1
 572 600 551 584 490 521 c 2
 326 348 l 1
 498 124 l 2
 547 61 581 37 629 37 c 1
 633 33 l 1
 627 -2 l 1
 627 -2 553 -14 542 -14 c 0
 508 -14 467 19 427 74 c 2
 248 323 l 1
EndSplineSet
Validated: 1
EndChar

StartChar: L
Encoding: 76 76 10
Width: 519
Flags: HMW
HStem: -10 22G<70 70> 0 46<168 366> 608 44 641 20G<303 303>
VStem: 145 74<94 123> 145 86
LayerCount: 2
Fore
SplineSet
207 0 m 0x68
 130 0 70 -10 70 -10 c 1
 76 37 l 1
 129 45 145 65 145 123 c 2
 146 553 l 2
 146 597 140 608 109 608 c 0
 97 608 74 606 74 606 c 1
 72 610 l 1
 79 655 l 1
 79 655 155 652 194 652 c 0xa8
 238 652 303 662 303 662 c 1
 299 615 l 1
 230 606 236 589 231 520 c 0x54
 222 392 219 218 219 125 c 0
 219 55 229 46 306 46 c 0
 425 46 446 65 469 191 c 1
 514 197 l 1
 517 191 l 1
 517 191 498 98 487 -3 c 1
 482 -9 l 1
 482 -9 304 0 207 0 c 0x68
EndSplineSet
Validated: 1
EndChar

StartChar: periodcentered
Encoding: 183 183 11
Width: 243
Flags: HMW
HStem: 172 122<105 139>
LayerCount: 2
Fore
SplineSet
119 172 m 0
 80 172 61 200 61 230 c 0
 61 265 86 294 125 294 c 0
 163 294 183 268 183 236 c 0
 183 201 159 172 119 172 c 0
EndSplineSet
Validated: 1
EndChar

StartChar: M
Encoding: 77 77 12
Width: 867
Flags: HMW
HStem: -19 22G<407 407> 0 45<115 205> 632 20G<174 205 673 698> 638 20G<794 794>
LayerCount: 2
Fore
SplineSet
431 -12 m 1x50
 407 -19 l 1x90
 208 532 l 1
 203 532 l 1
 203 532 168 104 168 77 c 0
 168 55 178 45 200 45 c 0
 210 45 242 46 242 46 c 1
 244 42 l 1
 234 -4 l 1
 234 -4 169 0 135 0 c 0
 94 0 47 -8 47 -8 c 1
 52 39 l 1
 95 44 112 63 118 118 c 0
 126 193 163 529 163 560 c 0
 163 596 136 612 74 616 c 1
 71 622 l 1
 79 657 l 1
 79 657 157 652 190 652 c 0
 220 652 260 656 260 656 c 1
 352 358 433 148 433 148 c 1
 438 148 l 1
 438 148 518 360 615 654 c 0
 615 654.143 615.98 654.204 617.717 654.204 c 0
 628.143 654.204 665.857 652 683 652 c 0x60
 714 652 794 658 794 658 c 1
 796 654 l 1
 791 616 l 1
 732 609 710 594 710 560 c 0
 710 530 725 285 736 142 c 1
 745 62 753 45 786 45 c 0
 798 45 815 47 815 47 c 1
 817 43 l 1
 808 -3 l 1
 808 -3 748 0 711 0 c 0
 667 0 604 -8 604 -8 c 1
 608 39 l 1
 650 44 669 59 669 90 c 0
 669 125 634 532 634 532 c 1
 629 532 l 1
 431 -12 l 1x50
EndSplineSet
Validated: 1
EndChar

StartChar: N
Encoding: 78 78 13
Width: 736
Flags: HMW
HStem: -41 22G<584 584> 0 45<140 229> 607 45 640 20G<702 702>
LayerCount: 2
Fore
SplineSet
564 148 m 1xe0
 569 148 l 1
 569 563 l 2
 569 593 559 607 536 607 c 0
 518 607 497 606 497 606 c 1
 495 610 l 1
 504 656 l 1
 504 656 566 652 601 652 c 0xe0
 644 652 702 660 702 660 c 1xd0
 697 613 l 1
 650 607 629 589 628 549 c 2
 613 -27 l 1
 584 -41 l 1
 384 270 203 523 203 523 c 1
 198 523 l 1
 193 86 l 2
 193 55 200 45 224 45 c 0
 234 45 276 46 276 46 c 1
 279 42 l 1
 269 -4 l 1
 269 -4 205 0 161 0 c 0
 120 0 66 -8 66 -8 c 1
 71 39 l 1
 113 44 133 61 134 103 c 2
 147 551 l 1
 147 593 127 607 58 614 c 1
 55 620 l 1
 63 657 l 1
 63 657 123 652 152 652 c 0
 186 652 220 656 220 656 c 1
 390 392 564 148 564 148 c 1xe0
EndSplineSet
Validated: 1
EndChar

StartChar: O
Encoding: 79 79 14
Width: 708
Flags: HMW
HStem: -12 52<289 421 289 421> 603 61<283 412>
VStem: 41 88<249 406> 577 91<247 394>
LayerCount: 2
Fore
SplineSet
356 40 m 0
 486 40 577 148 577 306 c 0
 577 481 481 603 343 603 c 0
 216 603 129 495 129 337 c 0
 129 162 222 40 356 40 c 0
325 -12 m 0
 157 -12 41 117 41 304 c 0
 41 507 189 665 378 665 c 0
 549 665 668 535 668 349 c 0
 668 145 519 -12 325 -12 c 0
EndSplineSet
Validated: 1
EndChar

StartChar: P
Encoding: 80 80 15
Width: 564
Flags: HMW
HStem: -8 22G<65 65> 0 45<189 273> 588 20G<102 123> 606 50<322 329> 632 20G<173 206>
VStem: 145 73<103 123> 455 86<416 507>
LayerCount: 2
Fore
SplineSet
72 610 m 1x56
 79 655 l 1
 79 655 154 652 193 652 c 0x6e
 221 652 322 656 322 656 c 1
 463 656 541 592 541 474 c 0
 541 357 428 250 306 250 c 2
 220 250 l 1
 218 150 l 1
 218 57 223 45 263 45 c 0
 283 45 318 48 318 48 c 1
 321 44 l 1
 311 -3 l 2
 311 -2 252 0 217 0 c 0x56
 162 0 67 -5 65 -8 c 1
 72 39 l 1
 131 49 145 65 145 123 c 2
 146 553 l 2
 146 597 139 608 109 608 c 0xae
 97 608 74 606 74 606 c 1
 72 610 l 1x56
222 310 m 1
 331 295 l 1
 413 308 455 363 455 455 c 0
 455 559 395 606 262 606 c 0x56
 237 606 235 606 234 592 c 0
 228 501 224 398 222 310 c 1
EndSplineSet
Validated: 1
EndChar

StartChar: Q
Encoding: 81 81 16
Width: 713
Flags: HMW
HStem: -221 81<690 736> -12 52<289 325> 603 61<283 412>
VStem: 41 88<249 406> 577 91<264 394>
LayerCount: 2
Fore
SplineSet
325 -12 m 1
 157 -12 41 117 41 304 c 0
 41 507 189 665 378 665 c 0
 549 665 668 535 668 349 c 0
 668 179 563 41 417 0 c 1
 417 -5 l 1
 562 -103 649 -140 731 -140 c 0
 779 -140 813 -130 813 -130 c 1
 817 -133 l 1
 823 -152 l 1
 823 -152 746 -221 726 -221 c 0
 629 -221 568 -189 325 -12 c 1
356 40 m 0
 486 40 577 148 577 306 c 0
 577 481 481 603 343 603 c 0
 216 603 129 495 129 337 c 0
 129 162 222 40 356 40 c 0
EndSplineSet
Validated: 1
EndChar

StartChar: R
Encoding: 82 82 17
Width: 625
Flags: HMW
HStem: -16 22G<507 524> -1 44 588 20G<102 123> 612 44<245 382> 632 20G<173 210>
VStem: 145 74 439 85<455 522>
LayerCount: 2
Fore
SplineSet
306 280 m 1xb6
 221 280 l 1
 218 127 l 1
 218 53 226 43 292 43 c 1
 294 39 l 1
 285 -4 l 2
 285 -3 224 -2 176 -1 c 0
 170.333 -0.888889 164.469 -0.839506 158.521 -0.839506 c 0
 110.938 -0.839506 58 -4 58 -4 c 1
 68 42 l 1
 131 49 145 64 145 123 c 2
 146 553 l 2
 146 597 139 608 109 608 c 0
 97 608 74 606 74 606 c 1
 72 610 l 1
 79 655 l 1
 79 655 154 652 193 652 c 0x6e
 228 652 318 656 318 656 c 1
 445 656 524 595 524 496 c 0
 524 414 469 342 374 299 c 1
 486 121 l 2
 526 56 558 34 613 34 c 1
 617 30 l 1
 611 -5 l 1
 524 -16 l 1
 490 -16 449 22 416 81 c 2
 306 280 l 1xb6
223 337 m 1
 329 327 l 1
 329 327 439 356 439 477 c 0
 439 567 377 612 252 612 c 0x76
 238 612 234 607 233 589 c 0
 227 480 224 409 223 337 c 1
EndSplineSet
Validated: 1
EndChar

StartChar: S
Encoding: 83 83 18
Width: 542
Flags: HMW
HStem: -12 50<195 292 195 298> 609 55<240 324>
VStem: 70 79<480 528> 399 78
LayerCount: 2
Fore
SplineSet
224 -12 m 0
 128 -12 63 23 63 23 c 1
 58 33 l 1
 58 33 71 112 71 211 c 1
 117 216 l 1
 117 69 139 38 250 38 c 0
 335 38 392 81 392 151 c 0
 392 218 316 254 237 295 c 0
 155 338 70 385 70 474 c 0
 70 582 172 665 305 665 c 0
 396 665 462 639 462 639 c 1
 465 633 l 1
 465 633 448 554 442 460 c 1
 402 456 l 1
 396 461 l 1
 396 461 399 482 399 514 c 0
 399 586 370 609 278 609 c 0
 203 609 148 567 148 511 c 0
 148 450 215 412 288 374 c 0
 377 328 477 280 477 187 c 0
 477 70 372 -12 224 -12 c 0
EndSplineSet
Validated: 1
EndChar

StartChar: T
Encoding: 84 84 19
Width: 559
Flags: HMW
HStem: -4 22G<128 128> 0 45 612 41<239 239> 644 20G<34 34 523 523>
VStem: 239 72<166 198 90 612>
LayerCount: 2
Fore
SplineSet
239 166 m 2xa8
 239 612 l 1x68
 78 605 74 603 57 483 c 1
 9 479 l 1
 9 479 22 569 25 656 c 1
 34 665 l 1x58
 119 653 l 1
 436 653 l 1x68
 523 665 l 1x58
 532 656 l 1
 535 569 548 483 548 483 c 1
 500 479 l 1
 480 602 475 605 327 612 c 1
 319 530 310 281 310 115 c 0
 310 65 327 45 369 45 c 0
 405 45 425 48 425 48 c 1
 428 44 l 1
 419 -3 l 1
 419 -3 316 0 268 0 c 0x68
 218 0 128 -4 128 -4 c 1
 136 40 l 1
 231 48 239 57 239 166 c 2xa8
EndSplineSet
Validated: 1
EndChar

StartChar: U
Encoding: 85 85 20
Width: 697
Flags: HMW
HStem: -12 58<304 415 304 415> 608 44 641 20G<266 266 664 664>
VStem: 111 82
LayerCount: 2
Fore
SplineSet
188 256 m 1xb0
 188 121 248 46 359 46 c 0
 471 46 531 106 531 219 c 0
 531 291 525 553 525 553 c 1
 522 600 517 608 487 608 c 0
 475 608 443 606 443 606 c 1
 441 610 l 1
 449 655 l 1
 449 655 525 652 564 652 c 0xd0
 608 652 664 662 664 662 c 1xb0
 659 615 l 1
 600 607 589 599 589 557 c 2
 589 213 l 2
 589 70 496 -12 335 -12 c 0
 192 -12 111 70 111 214 c 2
 111 553 l 2
 111 597 104 608 73 608 c 0
 61 608 38 606 38 606 c 1
 36 610 l 1
 43 655 l 1
 43 655 120 652 159 652 c 0xd0
 203 652 266 662 266 662 c 1
 262 615 l 1
 211 608 199 596 197 557 c 2
 188 256 l 1xb0
EndSplineSet
Validated: 1
EndChar

StartChar: V
Encoding: 86 86 21
Width: 624
Flags: HMW
HStem: -17 22G<264 264> 591 20G<-9 -9 362 362 362 416> 607 45 643 20G<270 270>
LayerCount: 2
Fore
SplineSet
87 549 m 0xa0
 75 588 46 606 -7 607 c 1xa0
 -9 611 l 1xd0
 -2 655 l 1
 -2 655 82 652 117 652 c 0xa0
 171 652 270 664 270 664 c 1
 273 656 l 1
 269 616 l 1
 196 611 178 603 178 573 c 0
 178 540 307 99 307 99 c 1
 316 99 l 1
 369 236 486 539 486 570 c 0
 486 599 466 611 416 611 c 2
 362 611 l 1xd0
 360 615 l 1
 367 659 l 1
 367 659 445 652 513 652 c 0
 562 652 626 655 626 655 c 1
 617 607 l 1
 575 605 564 597 550 558 c 1
 330 5 l 1
 264 -17 l 1
 264 -17 173 282 87 549 c 0xa0
EndSplineSet
Validated: 1
EndChar

StartChar: W
Encoding: 87 87 22
Width: 954
Flags: HMW
HStem: -17 22G<257 257 602 602> 591 20G<-7 -7 338 338 697 697 697 749> 607 45 643 20G<263 263 609 609>
LayerCount: 2
Fore
SplineSet
666 5 m 1xa0
 602 -17 l 1
 602 -17 544 193 474 417 c 1
 468 417 l 1
 323 5 l 1
 257 -17 l 1
 257 -17 172 283 86 549 c 0
 74 588 45 606 -6 607 c 0xa0
 -6 608 -7 610 -7 611 c 2xd0
 -1 655 l 1
 -1 655 81 652 115 652 c 0xa0
 188 652 263 664 263 664 c 1xd0
 266 656 l 1
 262 616 l 1
 192 611 174 603 174 574 c 0
 174 534 300 99 300 99 c 1
 306 99 l 1
 451 493 l 1
 432 549 l 2
 419 590 390 605 340 607 c 1xa0
 338 611 l 1xd0
 345 655 l 1
 345 655 427 652 461 652 c 0xa0
 522 652 609 664 609 664 c 1
 612 656 l 1
 608 616 l 1
 537 611 519 603 519 573 c 0
 519 539 646 99 646 99 c 1
 652 99 l 1
 703 237 818 544 818 575 c 0
 818 601 798 611 749 611 c 2
 697 611 l 1xd0
 695 615 l 1
 702 659 l 1
 702 659 779 652 845 652 c 0
 892 652 953 655 953 655 c 1
 946 607 l 1
 906 605 895 598 881 558 c 1
 666 5 l 1xa0
EndSplineSet
Validated: 1
EndChar

StartChar: X
Encoding: 88 88 23
Width: 671
Flags: HMW
HStem: -8 22G<374 374> 0 22G<98 137 504 556> 632 20G<152 216 522 561> 640 20G<313 313>
LayerCount: 2
Fore
SplineSet
185 186 m 2x60
 298 326 l 1
 164 526 l 2
 130 576 86 603 24 611 c 1
 22 615 l 1
 28 655 l 1
 28 655 128 652 175 652 c 0x60
 256 652 313 660 313 660 c 1x50
 316 653 l 1
 313 617 l 1
 257 613 233 604 233 581 c 0
 233 565 280 490 349 386 c 1
 395 449 483 556 483 585 c 0
 483 603 466 611 424 615 c 1
 422 620 l 1
 428 659 l 1
 428 659 503 652 541 652 c 0
 581 652 640 656 640 656 c 1
 644 649 l 1
 638 611 l 1
 577 599 555 576 499 505 c 2
 375 348 l 1
 524 130 l 2
 561 77 600 51 665 45 c 1
 667 41 l 1
 659 -3 l 1
 659 -3 579 0 532 0 c 0x60
 475 0 374 -8 374 -8 c 1xa0
 371 -1 l 1
 375 39 l 1
 429 42 455 51 455 75 c 0
 455 87 447 101 434 120 c 2
 323 288 l 1
 228 163 l 2
 188 110 176 91 176 72 c 0
 176 54 195 44 236 41 c 1
 238 37 l 1
 230 -7 l 1
 230 -7 156 0 118 0 c 0
 78 0 16 -4 16 -4 c 1
 12 3 l 1
 19 45 l 1
 79 62 124 110 185 186 c 2x60
EndSplineSet
Validated: 1
EndChar

StartChar: Y
Encoding: 89 89 24
Width: 550
Flags: HMW
HStem: -12 22G<147 147> 0 45 632 20G<76 128 454 493> 640 20G<245 245>
LayerCount: 2
Fore
SplineSet
167 581 m 0x50
 167 551 281 316 282 316 c 2
 287 316 l 1
 403 534 l 2
 413 552 420 571 420 585 c 0
 420 602 399 612 355 615 c 1
 353 620 l 1
 359 659 l 1
 359 659 435 652 473 652 c 0
 513 652 567 656 567 656 c 1
 571 649 l 1
 565 611 l 1
 494 598 486 575 431 478 c 2
 329 298 l 2
 307 261 308 227 306 115 c 0
 305.956 112.705 305.933 110.477 305.933 108.313 c 0
 305.933 61.4465 316.589 45 351 45 c 0
 371 45 401 48 401 48 c 1
 403 44 l 1
 394 -3 l 1
 394 -3 309 0 264 0 c 0x60
 213 0 147 -12 147 -12 c 1
 154 35 l 1
 228 49 233 69 233 145 c 2
 233 190 l 2
 233 230 229 257 204 306 c 2
 112 494 l 2
 71 578 63 604 -17 611 c 1
 -19 615 l 1
 -13 655 l 1
 -13 655 52 652 99 652 c 0xa0
 156 652 245 660 245 660 c 1
 248 653 l 1
 245 617 l 1
 184 612 167 605 167 581 c 0x50
EndSplineSet
Validated: 1
EndChar

StartChar: Z
Encoding: 90 90 25
Width: 581
Flags: HMW
HStem: -3 22G<49 49 492 492> 0 44 604 45 644 20G<82 82>
LayerCount: 2
Fore
SplineSet
507 13 m 1x60
 492 -3 l 1
 121 3 l 1
 49 -3 l 1xa0
 35 30 l 1
 417 607 l 1
 240 601 l 2
 146 597 112 563 101 460 c 1
 53 456 l 1
 53 456 70 561 72 655 c 1
 82 665 l 1x50
 261 653 l 1
 525 646 l 1
 537 616 l 1
 343 359 185 111 141 41 c 1
 349 48 l 1
 420 49 461 101 484 218 c 1
 532 223 l 1
 532 223 512 111 507 13 c 1x60
EndSplineSet
Validated: 1
EndChar

StartChar: a
Encoding: 97 97 26
Width: 477
Flags: HMW
HStem: -12 22G<353 381> -8 69 408 68<206 230>
VStem: 292 79<325 333>
LayerCount: 2
Fore
SplineSet
290 254 m 1x70
 292 299 l 1
 292 368 259 408 202 408 c 0
 135 408 79 356 79 356 c 1
 74 359 l 1
 61 403 l 1
 61 403 184 475 228 475 c 0
 317 475 371 426 371 343 c 0
 371 306 352 168 352 108 c 0
 352 78 367 60 394 60 c 0x70
 427 60 456 86 456 86 c 1
 470 70 l 1
 470 70 432 5 381 -12 c 1xb0
 326 -12 295 16 290 71 c 1
 286 72 l 1
 237 23 193 -8 173 -8 c 0
 97 -8 42 45 42 119 c 0
 42 159 63 192 96 201 c 2
 290 254 l 1x70
284 111 m 1
 288 215 l 1
 150 173 l 2
 131 167 120 152 120 130 c 0
 120 91 149 61 190 61 c 0
 216 61 255 82 284 111 c 1
EndSplineSet
Validated: 1
EndChar

StartChar: circumflex
Encoding: 710 710 27
Width: 407
Flags: HMW
HStem: 540 22G<79 79 329 329> 699 20G<197 211 211 211>
LayerCount: 2
Fore
SplineSet
70 541 m 1
 55 563 l 1
 122 633 197 720 197 720 c 1
 211 720 l 1
 211 720 285 633 352 563 c 1
 338 541 l 1
 329 540 l 1
 281 582 232 617 204 639 c 1
 175 617 128 583 79 540 c 1
 70 541 l 1
EndSplineSet
Validated: 1
EndChar

StartChar: grave
Encoding: 96 96 28
Width: 407
Flags: HMW
HStem: 534 22G 711 20G<122 122>
LayerCount: 2
Fore
SplineSet
74 676 m 1
 73 687 l 1
 112 729 l 1
 122 731 l 1
 122 731 201 635 275 555 c 1
 255 536 l 1
 246 534 l 1
 160 612 74 676 74 676 c 1
EndSplineSet
Validated: 1
EndChar

StartChar: b
Encoding: 98 98 29
Width: 520
Flags: HMW
HStem: -12 56<241 299> 406 70<279 307> 739 20G<179 179>
VStem: 404 79<181 270>
LayerCount: 2
Fore
SplineSet
87 641 m 2
 87 679 75 696 49 696 c 0
 38 696 27 693 27 693 c 1
 24 696 l 1
 28 730 l 1
 99 739 179 760 179 760 c 1
 185 746 l 1
 176 732 167 596 162 403 c 1
 224 448 272 475 286 475 c 0
 403 475 483 386 483 256 c 0
 483 106 369 -12 228 -12 c 0
 159 -12 96 0 96 0 c 1
 87 8 l 1
 87 641 l 2
157 66 m 1
 182 54 224 44 257 44 c 0
 348 44 404 110 404 218 c 0
 404 322 345 406 269 406 c 0
 241 406 195 382 160 350 c 1
 157 66 l 1
EndSplineSet
Validated: 1
EndChar

StartChar: c
Encoding: 99 99 30
Width: 434
Flags: HMW
HStem: -12 69<215 276> 420 55<207 274>
VStem: 37 82<189 288>
LayerCount: 2
Fore
SplineSet
374 90 m 1
 380 88 l 1
 391 56 l 1
 391 56 301 -12 251 -12 c 0
 121 -12 37 77 37 214 c 0
 37 361 139 475 273 475 c 0
 339 475 393 456 393 456 c 1
 396 449 l 1
 396 449 378 387 375 307 c 1
 333 304 l 1
 333 336 l 2
 333 386 299 420 249 420 c 0
 165 420 119 359 119 249 c 0
 119 130 172 56 258 56 c 0
 315 56 374 90 374 90 c 1
EndSplineSet
Validated: 1
EndChar

StartChar: caron
Encoding: 711 711 31
Width: 407
Flags: HMW
HStem: 539 22G<197 211 197 197> 707 20G<73 73 335 335>
LayerCount: 2
Fore
SplineSet
48 702 m 1
 65 726 l 1
 73 727 l 1
 125 682 174 646 204 624 c 1
 233 646 284 683 335 727 c 1
 343 726 l 1
 359 702 l 1
 288 629 211 539 211 539 c 1
 197 539 l 1
 197 539 119 629 48 702 c 1
EndSplineSet
Validated: 1
EndChar

StartChar: d
Encoding: 100 100 32
Width: 549
Flags: HMW
HStem: -12 22G<434 461> -9 70 416 59<222 294> 475 221<222 337> 739 20G<455 455>
VStem: 37 79<190 281>
LayerCount: 2
Fore
SplineSet
362 63 m 1x6c
 291 15 248 -9 234 -9 c 0
 116 -9 37 78 37 207 c 0
 37 354 152 475 292 475 c 0
 310 475 333 474 362 471 c 1
 362 641 l 2
 362 679 351 696 325 696 c 0
 314 696 299 692 299 692 c 1
 303 730 l 1
 374 739 455 760 455 760 c 1
 461 746 l 1
 447 722 432 408 432 108 c 0
 432 78 447 60 474 60 c 0x5c
 507 60 536 86 536 86 c 1
 550 70 l 1
 550 70 509 2 461 -12 c 1xac
 407 -12 377 12 370 60 c 1
 362 63 l 1x6c
362 112 m 1
 362 392 l 1
 362 392 324 416 263 416 c 0x6c
 172 416 116 350 116 242 c 0
 116 139 175 57 251 57 c 0
 300 57 362 112 362 112 c 1
EndSplineSet
Validated: 1
EndChar

StartChar: e
Encoding: 101 101 33
Width: 458
Flags: HMW
HStem: -12 70<220 283> 264 42 423 52<212 271>
VStem: 37 77<190 248 248 264 190 284>
LayerCount: 2
Fore
SplineSet
118 302 m 1
 303 311 l 1
 323 313 329 319 329 339 c 0
 329 393 298 423 244 423 c 0
 181 423 130 377 118 302 c 1
396 264 m 1
 114 264 l 1
 114 248 l 2
 114 133 174 57 265 57 c 0
 328 57 391 89 391 89 c 1
 397 87 l 1
 409 57 l 1
 409 57 313 -12 252 -12 c 0
 123 -12 37 79 37 214 c 0
 37 354 141 475 263 475 c 0
 363 475 416 424 416 327 c 0
 416 301 410 276 410 276 c 1
 396 264 l 1
EndSplineSet
Validated: 1
EndChar

StartChar: f
Encoding: 102 102 34
Width: 337
Flags: HMW
HStem: -4 22G<47 47> 0 44<133 250> 409 51<185 220> 699 60<274 337>
VStem: 111 72
LayerCount: 2
Fore
SplineSet
46 415 m 1xb8
 42 421 l 1
 49 456 l 1
 111 467 l 1
 111 471 l 1
 112 649 203 760 346 760 c 0
 416 760 463 740 463 740 c 1
 465 731 l 1
 465 731 448 703 433 665 c 1
 422 662 l 1
 422 662 371 699 304 699 c 0
 226 699 188 638 186 510 c 2
 185 460 l 1
 258 460 327 463 327 463 c 1
 330 460 l 1
 319 406 l 1
 319 406 256 409 184 409 c 1
 180 100 l 2
 180 61 196 44 232 44 c 0
 267 44 294 46 294 46 c 1
 296 42 l 1
 289 -2 l 1
 289 -2 202 0 162 0 c 0x78
 105 0 47 -4 47 -4 c 1
 52 36 l 1
 91 41 111 61 111 96 c 2
 111 373 l 1
 109 406 96 413 46 415 c 1xb8
EndSplineSet
Validated: 1
EndChar

StartChar: g
Encoding: 103 103 35
Width: 516
Flags: HMW
HStem: -248 50<221 283> 133 45<224 289 223 290> 423 52<210 273 203 276> 443 20G<341 354> 474 20G<496 496>
VStem: 63 77<271 342> 359 77<264 329>
LayerCount: 2
Fore
SplineSet
233 133 m 0xde
 214 133 196 136 174 141 c 1
 146 126 131 109 131 96 c 0
 131 64 170 49 254 46 c 1
 413 38 472 9 472 -63 c 0
 472 -157 348 -248 218 -248 c 0
 121 -248 63 -198 63 -112 c 1
 97 -67 165 -19 165 -19 c 1
 165 -13 l 1
 102 -5 53 38 53 87 c 1
 85 120 139 153 139 153 c 1
 139 157 l 1
 91 183 63 233 63 293 c 0
 63 390 153 475 254 475 c 0xe6
 293 475 327 464 354 464 c 1
 406 470 496 495 496 495 c 1
 499 490 l 1
 487 433 l 1
 487 433 442 427 399 424 c 1
 395 419 l 1
 422 389 436 353 436 315 c 0
 436 213 347 133 233 133 c 0xde
258 178 m 0
 320 178 359 220 359 290 c 0
 359 369 312 423 242 423 c 0
 180 423 140 379 140 310 c 0
 140 231 187 178 258 178 c 0
256 -198 m 0
 336 -198 407 -149 407 -96 c 0
 407 -56 371 -42 207 -20 c 1
 207 -20 143 -68 143 -114 c 0
 143 -166 185 -198 256 -198 c 0
EndSplineSet
Validated: 1
EndChar

StartChar: h
Encoding: 104 104 36
Width: 546
Flags: HMW
HStem: -12 22G<309 309> 0 43<110 202> 406 70<297 319> 739 20G<181 181>
VStem: 374 83
LayerCount: 2
Fore
SplineSet
30 -2 m 1x78
 36 40 l 1
 75 44 89 58 89 96 c 2
 89 641 l 2
 89 678 78 694 51 694 c 2
 30 694 l 1
 26 697 l 1
 30 730 l 1
 101 739 181 760 181 760 c 1
 187 746 l 1
 177 731 168 583 163 395 c 1
 182 408 277 475 316 475 c 0
 405 475 457 427 457 343 c 0
 457 307 440 159 440 100 c 0
 440 60 450 43 476 43 c 0
 488 43 512 45 512 45 c 1
 514 41 l 1
 506 -3 l 1
 506 -3 453 0 415 0 c 0x78
 372 0 309 -12 309 -12 c 1xb8
 313 30 l 1
 354 41 371 60 371 96 c 1
 377 299 l 1
 377 367 346 406 292 406 c 0
 238 406 177 361 162 349 c 1
 160 270 159 184 159 100 c 0
 159 58 169 43 196 43 c 0
 208 43 231 45 231 45 c 1
 233 41 l 1
 224 -3 l 1
 224 -3 169 0 131 0 c 0
 88 0 30 -2 30 -2 c 1x78
EndSplineSet
Validated: 1
EndChar

StartChar: i
Encoding: 105 105 37
Width: 288
Flags: HMW
HStem: -12 22G<45 45> 0 43<129 218> 616 113<130 153>
LayerCount: 2
Fore
SplineSet
136 616 m 0xa0
 106 616 86 638 86 669 c 0
 86 703 112 729 146 729 c 0
 175 729 197 708 197 677 c 0
 197 643 170 616 136 616 c 0xa0
45 -12 m 1
 49 30 l 1
 90 41 106 60 106 96 c 2
 106 356 l 2
 106 394 95 412 69 412 c 0
 58 412 43 408 43 408 c 1
 47 445 l 1
 116 455 195 475 195 475 c 1
 200 463 l 1
 188 434 176 261 176 100 c 0
 176 60 186 43 212 43 c 0
 224 43 248 45 248 45 c 1
 250 41 l 1
 242 -3 l 1
 242 -3 189 0 151 0 c 0x60
 108 0 45 -12 45 -12 c 1
EndSplineSet
Validated: 1
EndChar

StartChar: j
Encoding: 106 106 38
Width: 256
Flags: HMW
HStem: -247 22G<34 34> 616 113<117 141>
LayerCount: 2
Fore
SplineSet
34 -247 m 1
 15 -227 l 1
 17 -219 l 1
 75 -161 93 -101 93 39 c 2
 93 356 l 2
 93 398 83 412 52 412 c 0
 41 412 25 409 25 409 c 1
 29 446 l 1
 91 454 176 475 176 475 c 1
 181 463 l 1
 170 444 164 276 164 -14 c 0
 164 -112 118 -196 34 -247 c 1
124 616 m 0
 94 616 74 638 74 669 c 0
 74 703 100 729 134 729 c 0
 163 729 184 708 184 677 c 0
 184 643 158 616 124 616 c 0
EndSplineSet
Validated: 1
EndChar

StartChar: k
Encoding: 107 107 39
Width: 508
Flags: HMW
HStem: -14 57 0 43<110 202> 442 20G<368 406> 739 20G<181 181>
LayerCount: 2
Fore
SplineSet
30 -6 m 1x70
 35 36 l 1
 88.0702 43.7193 89.0012 67.2665 89.0012 130.898 c 0
 89 138 l 2
 89 641 l 2
 89 679 77 696 51 696 c 0
 40 696 26 692 26 692 c 1
 26 698 27 705 28 711 c 2
 30 730 l 1
 101 739 181 760 181 760 c 1
 187 746 l 1
 173 723 159 407 159 100 c 0
 159 58 169 43 196 43 c 0
 208 43 231 45 231 45 c 1
 233 41 l 1
 224 -3 l 1
 224 -3 169 0 131 0 c 0
 88 0 30 -6 30 -6 c 1x70
305 73 m 2
 184 244 l 1
 186 258 l 1
 311 373 l 2
 329 390 336 399 336 409 c 0
 336 424 320 430 280 430 c 1
 276 435 l 1
 286 465 l 1
 286 465 349 463 386 463 c 0
 425 463 483 469 483 469 c 1
 486 464 l 1
 478 432 l 1
 404 410 328 325 260 259 c 1
 368 121 l 2
 415 61 450 37 492 37 c 1
 495 32 l 1
 488 2 l 1
 488 2 428 -14 413 -14 c 0xb0
 400 -14 387 -9 377 -4 c 0
 355 7 336 29 305 73 c 2
EndSplineSet
Validated: 1
EndChar

StartChar: l
Encoding: 108 108 40
Width: 249
Flags: HMW
HStem: -12 22G<28 28> 0 43<112 201> 739 20G<181 181>
LayerCount: 2
Fore
SplineSet
28 -12 m 1xa0
 32 30 l 1
 87.254 44.9841 89.0081 69.6158 89.0081 126.072 c 0
 89.0081 129.899 89 133.873 89 138 c 2
 89 641 l 2
 89 679 77 696 51 696 c 0
 40 696 26 692 26 692 c 1
 26 698 27 705 28 711 c 2
 30 730 l 1
 101 739 181 760 181 760 c 1
 187 746 l 1
 173 723 159 404 159 100 c 0
 159 59 169 43 195 43 c 0
 207 43 230 45 230 45 c 1
 232 41 l 1
 224 -3 l 1
 224 -3 171 0 133 0 c 0x60
 90 0 28 -12 28 -12 c 1xa0
EndSplineSet
Validated: 1
EndChar

StartChar: m
Encoding: 109 109 41
Width: 851
Flags: HMW
HStem: -12 22G<329 329> 0 43<125 217> 406 70<315 336 600 622> 456 20G<186 186>
VStem: 392 73 678 82
LayerCount: 2
Fore
SplineSet
329 -12 m 1xac
 333 30 l 1
 374 41 390 60 390 96 c 2
 394 299 l 1
 394 367 363 406 309 406 c 0xac
 259 406 203 367 183 352 c 1
 180 281 174 140 174 100 c 0
 174 58 184 43 211 43 c 0
 223 43 247 45 247 45 c 1
 249 41 l 1
 240 -3 l 1
 240 -3 184 0 146 0 c 0
 103 0 45 -2 45 -2 c 1
 51 40 l 1
 90 44 104 58 104 96 c 2
 104 346 l 2
 104 392 91 409 54 409 c 2
 43 409 l 1
 40 413 l 1
 43 446 l 1
 114 457 186 476 186 476 c 1x5c
 193 468 l 1
 193 468 183 435 181 400 c 1
 183 397 l 1
 209 414 297 475 334 475 c 0
 400 475 447 445 465 394 c 1
 482 406 580 475 620 475 c 0
 706 475 760 424 760 343 c 0
 760 307 745 159 745 100 c 0
 745 58 755 43 782 43 c 0
 794 43 818 45 818 45 c 1
 820 41 l 1
 811 -3 l 1
 811 -3 756 0 718 0 c 0
 675 0 616 -6 616 -6 c 1
 622 36 l 1
 661 42 676 58 676 96 c 2
 680 299 l 1
 680 367 649 406 595 406 c 0
 546 406 494 370 471 354 c 1
 460 100 l 1
 460 60 470 43 496 43 c 0
 508 43 531 45 531 45 c 1
 534 41 l 1
 525 -3 l 1
 525 -3 472 0 434 0 c 0x6c
 391 0 329 -12 329 -12 c 1xac
EndSplineSet
Validated: 1
EndChar

StartChar: n
Encoding: 110 110 42
Width: 575
Flags: HMW
HStem: -12 22G<329 329> 0 43<125 217> 406 70<317 336> 456 20G<186 186>
VStem: 392 82
LayerCount: 2
Fore
SplineSet
329 -12 m 1xa8
 333 30 l 1
 374 41 390 60 390 96 c 2
 394 299 l 1
 394 367 363 406 309 406 c 0xa8
 259 406 203 367 183 352 c 1
 180 281 174 140 174 100 c 0
 174 58 184 43 211 43 c 0
 223 43 247 45 247 45 c 1
 249 41 l 1
 240 -3 l 1
 240 -3 184 0 146 0 c 0
 103 0 45 -6 45 -6 c 1
 50 36 l 1
 89 42 104 58 104 96 c 2
 104 346 l 2
 104 392 91 409 54 409 c 2
 43 409 l 1
 40 413 l 1
 43 446 l 1
 114 457 186 476 186 476 c 1x58
 193 468 l 1
 193 468 183 435 181 400 c 1
 183 397 l 1
 208 413 301 475 334 475 c 0
 420 475 474 424 474 343 c 0
 474 307 460 159 460 100 c 0
 460 60 470 43 496 43 c 0
 508 43 531 45 531 45 c 1
 534 41 l 1
 525 -3 l 1
 525 -3 472 0 434 0 c 0x68
 391 0 329 -12 329 -12 c 1xa8
EndSplineSet
Validated: 1
EndChar

StartChar: o
Encoding: 111 111 43
Width: 509
Flags: HMW
HStem: -12 50<221 303 221 303> 420 55<207 287>
VStem: 37 82<183 288> 389 84<175 272>
LayerCount: 2
Fore
SplineSet
236 -12 m 0
 118 -12 37 81 37 215 c 0
 37 361 140 475 274 475 c 0
 391 475 473 382 473 248 c 0
 473 102 370 -12 236 -12 c 0
264 38 m 0
 341 38 389 105 389 211 c 0
 389 334 330 420 244 420 c 0
 167 420 119 353 119 245 c 0
 119 122 178 38 264 38 c 0
EndSplineSet
Validated: 1
EndChar

StartChar: p
Encoding: 112 112 44
Width: 540
Flags: HMW
HStem: -243 22G<46 46> -236 41<204 229 204 252> -214 20G<252 258> -12 56<261 318> 402 70<298 328> 456 20G<187 187>
VStem: 425 79<182 270>
LayerCount: 2
Fore
SplineSet
51 -203 m 1xba
 95 -198 103 -185 103 -129 c 0
 103 -96 105 -3 105 41 c 2
 105 346 l 2
 105 392 92 409 55 409 c 2
 44 409 l 1
 41 413 l 1
 44 446 l 1
 115 457 187 476 187 476 c 1x56
 194 468 l 1
 194 468 186 440 183 413 c 1
 187 406 l 1
 247 448 291 472 306 472 c 0
 424 472 504 385 504 256 c 0
 504 109 388 -12 249 -12 c 0
 224 -12 174 -8 174 -8 c 1
 174 -43 175 -79 175 -114 c 0
 175 -176 184 -195 223 -195 c 0x5a
 234 -195 247 -194 258 -194 c 1xba
 260 -197 l 1
 252 -236 l 1
 155 -236 l 2x5a
 97 -236 46 -243 46 -243 c 1
 51 -203 l 1xba
175 63 m 1
 202 52 244 44 278 44 c 0
 369 44 425 110 425 218 c 0
 425 321 366 402 290 402 c 0x5a
 262 402 219 382 183 352 c 1
 178 268 175 151 175 63 c 1
EndSplineSet
Validated: 1
EndChar

StartChar: q
Encoding: 113 113 45
Width: 528
Flags: HMW
HStem: -240 22G<286 286> -236 41<452 475 452 489> -12 67<213 242> 416 59<222 294> 469 20G<442 442>
VStem: 37 79<189 281>
LayerCount: 2
Fore
SplineSet
286 -240 m 1xb4
 291 -201 l 1
 347 -198 356 -188 358 -138 c 2
 362 61 l 1
 295 15 248 -12 234 -12 c 0
 117 -12 37 77 37 207 c 0
 37 354 152 475 292 475 c 0xb4
 321 475 355 472 386 466 c 1
 417 477 442 489 442 489 c 1
 451 480 l 1
 439 449 431 227 431 -109 c 0
 431 -183 436 -195 468 -195 c 0
 482 -195 495 -194 495 -194 c 1
 497 -196 l 1
 489 -236 l 1
 395 -236 l 2x6c
 348 -236 286 -240 286 -240 c 1xb4
362 112 m 1
 362 392 l 1
 362 392 324 416 263 416 c 0
 172 416 116 350 116 242 c 0
 116 138 175 54 251 54 c 0
 300 54 362 112 362 112 c 1
EndSplineSet
Validated: 1
EndChar

StartChar: r
Encoding: 114 114 46
Width: 392
Flags: HMW
HStem: -4 22G<55 55> 0 45<133 238> 383 88<270 345> 456 20G<187 187>
LayerCount: 2
Fore
SplineSet
60 37 m 1xa0
 101 41 112 57 112 122 c 2
 112 347 l 2
 112 392 101 410 73 410 c 0
 62 410 51 407 51 407 c 1
 46 414 l 1
 49 445 l 1
 111 456 187 476 187 476 c 1x50
 195 470 l 1
 195 470 184.936 417.849 184.936 371.306 c 0
 184.936 369.191 184.957 367.087 185 365 c 1
 189 361 l 1
 231 426 293 471 334 471 c 0
 357 471 366 467 366 467 c 1
 369 463 l 1
 369 463 354 378 352 316 c 1
 312 313 l 1
 312 369 308 383 285 383 c 0
 255 383 218 356 189 313 c 1
 189 313 181 127 181 104 c 0
 181 58 191 45 230 45 c 0
 244 45 275 47 275 47 c 1
 276 43 l 1
 267 -2 l 1
 267 -2 203 0 163 0 c 0x60
 103 0 55 -4 55 -4 c 1
 60 37 l 1xa0
EndSplineSet
Validated: 1
EndChar

StartChar: s
Encoding: 115 115 47
Width: 411
Flags: HMW
HStem: -12 48<161 223 161 225> 426 49<194 242>
LayerCount: 2
Fore
SplineSet
175 -12 m 0
 100 -12 53 9 53 9 c 1
 50 16 l 1
 54 38 61 120 62 154 c 1
 98 159 l 1
 98 69 125 36 198 36 c 0
 249 36 290 62 290 96 c 0
 290 130 265 152 171 202 c 1
 93 242 59 280 59 329 c 0
 59 413 140 475 248 475 c 0
 303 475 350 459 350 459 c 1
 352 454 l 1
 352 454 338 397 333 329 c 1
 295 326 l 1
 295 326 297 346 297 355 c 0
 297 404 271 426 213 426 c 0
 167 426 130 401 130 370 c 0
 130 337 156 311 219 278 c 0
 330 220 362 186 362 135 c 0
 362 56 275 -12 175 -12 c 0
EndSplineSet
Validated: 1
EndChar

StartChar: t
Encoding: 116 116 48
Width: 337
Flags: HMW
HStem: -12 70<205 223> 407 54 524 20G<154 154>
LayerCount: 2
Fore
SplineSet
84 112 m 2
 84 364 l 2
 84 401 71 413 26 415 c 1
 22 421 l 1
 27 452 l 1
 94 485 154 545 154 545 c 1
 174 537 l 1
 174 537 170 510 166 460 c 1
 316 463 l 1
 319 460 l 1
 310 406 l 1
 162 409 l 1
 158 344 155 258 155 153 c 0
 155 83 176 57 234 57 c 0
 268 57 304 76 304 76 c 1
 314 49 l 1
 314 49 236 -12 211 -12 c 0
 118 -12 84 22 84 112 c 2
EndSplineSet
Validated: 1
EndChar

StartChar: u
Encoding: 117 117 49
Width: 553
Flags: HMW
HStem: -12 73<463 480> 455 20G<179 179 451 451>
LayerCount: 2
Fore
SplineSet
88 106 m 1
 92 355 l 2
 92 391 80 411 54 411 c 0
 43 411 29 407 29 407 c 1
 33 444 l 1
 96 454 179 475 179 475 c 1
 185 463 l 1
 172 427 159 279 159 159 c 0
 159 91 186 58 241 58 c 0
 288 58 331 92 365 117 c 1
 365 354 l 2
 365 395 351 410 313 410 c 0
 307 410 289 409 289 409 c 1
 293 445 l 1
 366 455 451 475 451 475 c 1
 457 463 l 1
 445 432 434 272 434 108 c 0
 434 78 449 60 476 60 c 0
 509 60 538 86 538 86 c 1
 552 70 l 1
 552 70 498 -12 463 -12 c 0
 408 -12 377 16 372 71 c 1
 367 73 l 1
 301 23 242 -12 224 -12 c 0
 136 -12 88 29 88 106 c 1
EndSplineSet
Validated: 1
EndChar

StartChar: v
Encoding: 118 118 50
Width: 455
Flags: HMW
HStem: -17 22G<186 186> 442 20G<69 112 354 397> 450 20G<204 204>
LayerCount: 2
Fore
SplineSet
354 401 m 0xa0
 354 419 343 426 310 426 c 2
 271 426 l 1
 267 432 l 1
 272 464 l 1
 272 464 329 463 379 463 c 0
 415 463 463 464 463 464 c 1
 456 426 l 1
 427 422 416 408 390 349 c 2
 242 0 l 1
 186 -17 l 1
 186 -17 91 287 61 375 c 0
 50 408 27 425 -8 426 c 1
 -10 430 l 1
 -4 464 l 1
 -4 464 57 463 81 463 c 0xc0
 143 463 204 470 204 470 c 1
 206 465 l 1
 200 433 l 1
 153 431 139 425 139 407 c 0
 139 377 226 83 226 83 c 1
 230 83 l 1
 306 271 354 376 354 401 c 0xa0
EndSplineSet
Validated: 1
EndChar

StartChar: w
Encoding: 119 119 51
Width: 721
Flags: HMW
HStem: -17 22G<186 186 454 454> 442 20G<73 115 340 381 473 473 614 656> 450 20G<204 204>
LayerCount: 2
Fore
SplineSet
616 401 m 0xc0
 616 419 605 427 574 427 c 2
 537 427 l 1
 532 433 l 1
 538 465 l 1
 538 465 590 463 639 463 c 0
 673 463 723 464 723 464 c 1
 716 426 l 1
 688 423 677 408 652 349 c 2
 508 0 l 1
 454 -17 l 1
 454 -17 399 162 361 285 c 1
 355 285 l 1
 242 0 l 1
 186 -17 l 1
 186 -17 95 287 66 375 c 0
 55 408 33 425 -2 426 c 1
 -4 430 l 1
 2 464 l 1
 2 464 61 463 84 463 c 0xc0
 145 463 204 470 204 470 c 1xa0
 206 465 l 1
 200 433 l 1
 155 431 141 425 141 407 c 0
 141 375 225 83 225 83 c 1
 229 83 l 1
 281 216 320 307 338 358 c 1
 324 401 307 426 265 426 c 1
 263 430 l 1
 269 464 l 1
 269 464 328 463 351 463 c 0
 411 463 471 468 471 468 c 1
 473 463 l 1
 467 431 l 1
 420 429 409 424 409 407 c 0
 409 377 493 83 493 83 c 1
 497 83 l 1
 571 271 616 376 616 401 c 0xc0
EndSplineSet
Validated: 1
EndChar

StartChar: x
Encoding: 120 120 52
Width: 486
Flags: HMW
HStem: -6 22G<262 262> 0 22G<60 86 356 393> 442 20G<101 147 306 381 381 395> 446 20G<222 222>
LayerCount: 2
Fore
SplineSet
377 0 m 0x60
 336 0 262 -6 262 -6 c 1xa0
 260 -1 l 1
 266 31 l 1
 300 32 313 38 313 52 c 0
 313 60 308 73 296 90 c 2
 221 195 l 1
 183 149 118 70 118 52 c 0
 118 39 127 36 163 34 c 1
 165 30 l 1
 159 -4 l 1
 159 -4 98 0 74 0 c 0
 46 0 12 -3 12 -3 c 1
 9 2 l 1
 15 34 l 1
 52 53 67 73 111 124 c 2
 199 226 l 1
 121 337 l 2
 76 402 59 418 10 426 c 1
 8 430 l 1
 14 465 l 1
 14 465 85 463 118 463 c 0x60
 176 463 222 467 222 467 c 1x50
 224 462 l 1
 218 430 l 1
 185 430 172 425 172 411 c 0
 172 398 184 381 197 362 c 2
 253 281 l 1
 315 359 l 2
 333 382 347 398 347 412 c 0
 347 422 338 425 303 425 c 1
 301 429 l 1
 306 463 l 1
 381 463 l 2
 409 463 454 466 454 466 c 1
 457 461 l 1
 451 428 l 1
 429 421 399 390 365 351 c 2
 276 248 l 1
 371 114 l 2
 406 64 433 41 474 37 c 1
 476 33 l 1
 470 -2 l 1
 470 -2 410 0 377 0 c 0x60
EndSplineSet
Validated: 1
EndChar

StartChar: y
Encoding: 121 121 53
Width: 456
Flags: HMW
HStem: -247 66<32 36 -3 37> 442 20G<70 112 352 395> 450 20G<205 205>
LayerCount: 2
Fore
SplineSet
231 93 m 1xa0
 236 93 l 1
 283 206 355 382 355 402 c 0
 355 420 343 429 316 429 c 2
 269 429 l 1
 267 433 l 1
 273 467 l 1
 273 467 327 463 377 463 c 0
 413 463 464 464 464 464 c 1
 457 426 l 1
 426 421 413 408 399 368 c 1
 267 56 l 1
 163.594 -182.326 128.079 -247.046 41.0617 -247.046 c 0
 39.7202 -247.046 38.3664 -247.03 37 -247 c 0
 27 -247 -8 -201 -8 -188 c 1
 -3 -181 l 1
 76 -181 151 -114 197 -1 c 1
 165 99 101 280 62 377 c 1
 46 411 27 425 -7 426 c 1
 -9 430 l 1
 -3 464 l 1
 -3 464 58 463 82 463 c 0xc0
 142 463 205 470 205 470 c 1
 207 465 l 1
 201 433 l 1
 154 431 140 425 140 407 c 0
 140 371 231 93 231 93 c 1xa0
EndSplineSet
Validated: 1
EndChar

StartChar: z
Encoding: 122 122 54
Width: 471
Flags: HMW
HStem: -6 22G<388 388> -1 41 421 41 453 20G<72 72>
LayerCount: 2
Fore
SplineSet
47 -2 m 1x60
 37 24 l 1
 315 424 l 1
 187 418 l 2
 120 414 101 395 94 326 c 1
 54 319 l 1
 54 319 65 402 66 468 c 1
 72 473 l 1x50
 203 465 l 1
 418 460 l 1
 426 438 l 1
 281 251 163 80 133 36 c 1
 285 45 l 2
 339 49 367 85 381 170 c 1
 422 175 l 1
 422 175 404 84 404 10 c 1
 388 -6 l 1xa0
 100 3 l 1
 47 -2 l 1x60
EndSplineSet
Validated: 1
EndChar

StartChar: fi
Encoding: 64257 64257 55
Width: 601
Flags: HMW
HStem: -12 22G<357 357> 0 44<133 250> 412 51<185 310 185 348 184 310> 699 60<286 357>
VStem: 111 76<510 510 510 557>
LayerCount: 2
Fore
SplineSet
186 510 m 1x78
 185 463 l 1
 434 463 462 464 507 475 c 1
 512 463 l 1
 500 434 488 260 488 100 c 0
 488 59 498 43 524 43 c 0
 536 43 560 45 560 45 c 1
 562 41 l 1
 554 -3 l 1
 554 -3 501 0 463 0 c 0x78
 420 0 357 -12 357 -12 c 1xb8
 361 30 l 1
 410 43 419 57 419 133 c 2
 419 356 l 2
 419 403 408 412 348 412 c 2
 184 412 l 1
 184 309 180 203 180 100 c 0
 180 63 197 44 230 44 c 0
 269 44 294 45 294 45 c 1
 296 41 l 1
 289 -2 l 1
 289 -2 202 0 162 0 c 0
 105 0 47 -4 47 -4 c 1
 52 36 l 1
 99 42 111 59 111 130 c 2
 111 371 l 1
 109 404 95 413 46 415 c 1
 42 421 l 1
 49 456 l 1
 111 467 l 1
 111 647 208 760 365 760 c 0
 412 760 447 751 501 725 c 1
 503 716 l 1
 503 716 486 683 471 639 c 1
 460 636 l 1
 460 636 398 699 316 699 c 0
 230 699 187 638 186 510 c 1x78
EndSplineSet
Validated: 1
EndChar

StartChar: fl
Encoding: 64258 64258 56
Width: 587
Flags: HMW
HStem: -12 22G<366 366> 0 43<450 539> 409 51<185 220> 699 60<271 320>
VStem: 111 72
LayerCount: 2
Fore
SplineSet
184 409 m 1xb8
 180 100 l 2
 180 61 196 44 232 44 c 0
 267 44 294 46 294 46 c 1
 296 42 l 1
 289 -2 l 1
 289 -2 202 0 162 0 c 0
 105 0 47 -4 47 -4 c 1
 52 36 l 1
 91 41 111 61 111 96 c 2
 111 373 l 1
 109 405 97 413 46 415 c 1
 42 421 l 1
 49 456 l 1
 111 467 l 1
 111 471 l 1
 112 648 201 760 342 760 c 0
 376 760 412 753 443 742 c 1
 486 750 519 760 519 760 c 1
 525 746 l 1
 511 723 497 402 497 100 c 0
 497 59 506 43 532 43 c 0
 544 43 568 45 568 45 c 1
 570 41 l 1
 562 -3 l 1
 562 -3 509 0 471 0 c 0x78
 428 0 366 -12 366 -12 c 1
 370 30 l 1
 411 41 427 60 427 96 c 2
 427 641 l 1
 426 655 l 1
 393 681 340 699 300 699 c 0
 225 699 187 637 186 510 c 1
 185 460 l 1
 258 460 327 463 327 463 c 1
 330 460 l 1
 319 406 l 1
 319 406 256 409 184 409 c 1xb8
EndSplineSet
Validated: 1
EndChar

StartChar: ordfeminine
Encoding: 170 170 57
Width: 328
Flags: HMW
HStem: 351 22G<238 257> 354 55 609 53<144 155>
LayerCount: 2
Fore
SplineSet
193 526 m 1x60
 194 547 l 1
 194 586 173 609 137 609 c 0
 96 609 59 579 59 579 c 1
 54 581 l 1
 45 614 l 1
 45 614 129 663 159 663 c 0
 228 663 260 627 260 577 c 0
 260 554 248 470 248 437 c 0
 248 420 257 410 272 410 c 0x60
 290 410 308 423 308 423 c 1
 317 411 l 1
 317 411 289 361 257 351 c 1xa0
 219 351 198 368 195 402 c 1
 190 403 l 1
 161 375 133 354 118 354 c 0
 69 354 31 392 31 442 c 0
 31 468 45 490 68 496 c 2
 193 526 l 1x60
189 432 m 1
 191 496 l 1
 114 473 l 2
 103 470 96 462 96 450 c 0
 96 426 113 409 137 409 c 0
 151 409 173 419 189 432 c 1
EndSplineSet
Validated: 1
EndChar

StartChar: ordmasculine
Encoding: 186 186 58
Width: 346
Flags: HMW
HStem: 351 42<154 199 154 208> 615 47<146 191>
VStem: 29 72<479 545> 245 73<468 529>
LayerCount: 2
Fore
SplineSet
163 351 m 0
 82 351 29 411 29 498 c 0
 29 593 94 663 184 663 c 0
 265 663 317 605 317 516 c 0
 317 421 253 351 163 351 c 0
178 393 m 0
 220 393 245 428 245 489 c 0
 245 569 215 615 167 615 c 0
 125 615 100 580 100 519 c 0
 100 439 130 393 178 393 c 0
EndSplineSet
Validated: 1
EndChar

StartChar: zero
Encoding: 48 48 59
Width: 545
Flags: HMW
HStem: -12 78<224 329 224 331> 434 83<216 320>
LayerCount: 2
Fore
SplineSet
259 -12 m 0
 127 -12 39 89 39 241 c 0
 39 401 145 517 288 517 c 0
 417 517 507 415 507 269 c 0
 507 106 402 -12 259 -12 c 0
278 66 m 0
 380 66 450 137 450 241 c 0
 450 355 374 434 266 434 c 0
 164 434 96 364 96 256 c 0
 96 143 170 66 278 66 c 0
EndSplineSet
Validated: 1
EndChar

StartChar: one
Encoding: 49 49 60
Width: 362
Flags: HMW
HStem: -12 22G<50 50> 0 45<153 281> 497 20G<255 256>
LayerCount: 2
Fore
SplineSet
224 414 m 1xa0
 220 305 218 167 218 115 c 0
 218 61 228 45 268 45 c 0
 293 45 323 48 323 48 c 1
 325 44 l 1
 315 -3 l 1
 315 -3 229 0 179 0 c 0x60
 127 0 50 -12 50 -12 c 1
 56 35 l 1
 132 41 148 62 148 152 c 2
 148 385 l 2
 148 437 128 443 93 443 c 0
 71 443 39 437 39 437 c 1
 36 440 l 1
 40 483 l 1
 40 483 101 491 153 499 c 0
 254 515 254 517 256 517 c 1
 262 500 l 1
 235 477 227 461 224 414 c 1xa0
EndSplineSet
Validated: 1
EndChar

StartChar: two
Encoding: 50 50 61
Width: 486
Flags: HMW
HStem: -12 22G<38 38> 0 62<93 308> 449 69<193 223>
VStem: 275 90<364 395>
LayerCount: 2
Fore
SplineSet
38 -12 m 1xb0
 28 6 l 1
 109 96 l 1
 224 226 275 314 275 371 c 0
 275 420 247 449 199 449 c 0
 153 449 104 412 73 357 c 1
 63 357 l 1
 52 403 l 1
 86 469 159 517 225 517 c 0
 310 517 366 468 366 394 c 0
 366 333 314 258 147 70 c 1
 152 62 l 1
 308 62 l 2
 383 62 403 78 423 156 c 1
 464 161 l 1
 464 161 442 75 434 0 c 1
 422 -7 l 1
 422 -7 181 0 93 0 c 1x70
 38 -12 l 1xb0
EndSplineSet
Validated: 1
EndChar

StartChar: three
Encoding: 51 51 62
Width: 424
Flags: HMW
HStem: -108 72<95 152> 453 65<169 198>
VStem: 289 77<71 135>
LayerCount: 2
Fore
SplineSet
20 -33 m 1
 26 -27 l 1
 55 -33 82 -36 108 -36 c 0
 210 -36 289 22 289 100 c 0
 289 170 230 203 105 204 c 1
 100 209 l 1
 95 245 l 1
 162 261 l 1
 216 287 255 336 255 381 c 0
 255 424 220 453 175 453 c 0
 136 453 89 431 58 400 c 1
 48 400 l 1
 38 443 l 1
 38 443 131 517 207 517 c 0
 287 517 340 472 340 402 c 0
 340 348 296 292 227 257 c 1
 227 252 l 1
 319 230 366 187 366 125 c 0
 366 16 217 -108 86 -108 c 0
 40 -108 21 -86 20 -33 c 1
EndSplineSet
Validated: 1
EndChar

StartChar: four
Encoding: 52 52 63
Width: 457
Flags: HMW
HStem: -108 22G<257 257> 91 55<4 257> 496 20G<291 291> 497 20G<294 295>
LayerCount: 2
Fore
SplineSet
4 91 m 1xd0
 8 129 l 1
 291 516 l 2xe0
 292 516 294 517 295 517 c 2
 328 507 l 1
 328 146 l 1
 423 146 l 1
 429 138 l 1
 421 82 l 1
 421 82 383 83 328 85 c 1
 329 2 335 -88 335 -88 c 1
 330 -95 l 1
 257 -108 l 1
 251 -98 l 1
 251 -98 256 7 257 87 c 1
 178 89 84 91 4 91 c 1xd0
248 376 m 1
 83 146 l 1
 257 146 l 1
 257 376 l 1
 248 376 l 1
EndSplineSet
Validated: 1
EndChar

StartChar: five
Encoding: 53 53 64
Width: 440
Flags: HMW
HStem: -108 72<91 142> 432 71 530 20G<389 389>
VStem: 295 78<69 134>
LayerCount: 2
Fore
SplineSet
373 131 m 0
 373 6 204 -108 81 -108 c 0
 42 -108 19 -93 16 -33 c 1
 22 -27 l 1
 51 -33 77 -36 104 -36 c 0
 212 -36 295 19 295 100 c 0
 295 167 243 201 81 229 c 1
 72 241 l 1
 82 362 89 490 89 490 c 1
 97 499 l 1
 291 507 l 2
 331 509 344 516 355 547 c 1
 389 551 l 1
 365 430 l 1
 358 424 l 1
 358 424 253 432 134 432 c 1
 127 303 l 1
 264 271 373 228 373 131 c 0
EndSplineSet
Validated: 1
EndChar

StartChar: six
Encoding: 54 54 65
Width: 465
Flags: HMW
HStem: -12 49<207 279 207 286> 292 60<237 266> 592 20G<381 381>
VStem: 41 82<156 216 156 356> 353 76<131 194>
LayerCount: 2
Fore
SplineSet
399 577 m 1
 399 577 187 501 134 301 c 1
 138 299 l 1
 138 299 221 352 252 352 c 0
 370 352 429 262 429 184 c 0
 429 76 346 -12 225 -12 c 0
 111 -12 41 81 41 202 c 0
 41 510 381 612 381 612 c 1
 388 607 l 1
 399 577 l 1
229 292 m 0
 184 292 141 265 126 254 c 1
 124 239 123 223 123 208 c 0
 123 105 169 37 246 37 c 0
 312 37 353 83 353 160 c 0
 353 229 302 292 229 292 c 0
EndSplineSet
Validated: 1
EndChar

StartChar: seven
Encoding: 55 55 66
Width: 494
Flags: HMWO
HStem: -108 22G<250 257 250 250> 431 74 488 20G<149 149>
LayerCount: 2
Fore
SplineSet
243.049804688 62.849609375 m 5xc0
 236.75 62.849609375 l 5
 180.950195312 79.9501953125 l 5
 171.950195312 99.75 l 5
 402.349609375 551.549804688 l 5
 243.049804688 545.25 l 6
 180.049804688 542.549804688 170.150390625 525.450195312 158.450195312 459.75 c 5
 122.450195312 454.349609375 l 5
 122.450195312 454.349609375 135.049804688 543.450195312 139.549804688 613.650390625 c 5
 145.849609375 618.150390625 l 5xa0
 145.849609375 618.150390625 200.75 614.549804688 257.450195312 614.549804688 c 6
 452.75 614.549804688 l 5
 472.549804688 588.450195312 l 5
 366.349609375 374.25 302.450195312 224.849609375 266.450195312 142.950195312 c 5
 243.049804688 62.849609375 l 5xc0
EndSplineSet
Validated: 524289
EndChar

StartChar: eight
Encoding: 56 56 67
Width: 496
Flags: HMW
HStem: -12 44<221 287 221 292> 565 47<214 271>
VStem: 57 75<120 175> 76 72<444 488> 343 77<436 490>
LayerCount: 2
Fore
SplineSet
57 127 m 0xe8
 57 223 143 274 189 296 c 1
 129 329 76 369 76 445 c 0xd8
 76 531 151 612 260 612 c 0
 339 612 420 567 420 475 c 0
 420 396 360 350 318 327 c 1
 383 292 441 249 441 170 c 0
 441 70 351 -12 232 -12 c 0
 140 -12 57 37 57 127 c 0xe8
257 32 m 0
 317 32 371 78 371 140 c 0
 371 210 298 242 225 278 c 1
 191 264 132 229 132 152 c 0
 132 90 184 32 257 32 c 0
147 476 m 0xd8
 147 413 213 381 282 345 c 1
 310 361 343 394 343 454 c 0
 343 527 299 565 243 565 c 0
 185 565 147 522 147 476 c 0xd8
EndSplineSet
Validated: 1
EndChar

StartChar: nine
Encoding: 57 57 68
Width: 465
Flags: HMW
HStem: -108 22G<85 85> 153 60<199 229> 468 49<187 258>
VStem: 37 76<310 374> 343 82<289 348>
LayerCount: 2
Fore
SplineSet
67 -72 m 1
 67 -72 279 3 331 203 c 1
 328 206 l 1
 328 206 245 153 214 153 c 0
 96 153 37 243 37 321 c 0
 37 429 120 517 241 517 c 0
 355 517 425 424 425 303 c 0
 425 -5 85 -108 85 -108 c 1
 78 -102 l 1
 67 -72 l 1
237 213 m 0
 282 213 324 240 340 251 c 1
 342 265 343 281 343 297 c 0
 343 399 296 468 220 468 c 0
 154 468 113 422 113 345 c 0
 113 274 162 213 237 213 c 0
EndSplineSet
Validated: 1
EndChar

StartChar: fraction
Encoding: 8260 8260 69
Width: 128
Flags: HMW
HStem: -97 22G<-172 -172> 674 20G<271 271>
LayerCount: 2
Fore
SplineSet
311 675 m 1
 316 660 l 1
 316 660 138 395 48 251 c 0
 -44 103 -172 -97 -172 -97 c 1
 -211 -78 l 1
 -216 -66 l 1
 -216 -66 -82 139 9 282 c 2
 271 694 l 1
 311 675 l 1
EndSplineSet
Validated: 1
EndChar

StartChar: zero.lf
Encoding: 1114113 -1 70
Width: 545
Flags: HMW
HStem: -12 75<224 328 224 331> 532 80<216 320>
LayerCount: 2
Fore
SplineSet
259 -12 m 0
 127 -12 39 109 39 289 c 0
 39 476 145 612 288 612 c 0
 417 612 507 491 507 317 c 0
 507 127 402 -12 259 -12 c 0
278 62 m 0
 379 62 447 154 447 289 c 0
 447 433 374 532 266 532 c 0
 164 532 98 442 98 304 c 0
 98 160 172 62 278 62 c 0
EndSplineSet
Validated: 1
EndChar

StartChar: one.lf
Encoding: 1114114 -1 71
Width: 362
Flags: HMW
HStem: -12 22G<51 51> 0 22G<154 205> 592 20G<259 259>
LayerCount: 2
Fore
SplineSet
227 509 m 1xa0
 223 400 219 167 219 115 c 0
 219 61 229 45 269 45 c 0
 294 45 324 48 324 48 c 1
 326 44 l 1
 316 -3 l 1
 316 -3 230 0 180 0 c 0x60
 128 0 51 -12 51 -12 c 1
 57 35 l 1
 135 41 150 63 150 156 c 2
 150 480 l 2
 150 532 129 539 94 539 c 0
 72 539 40 532 40 532 c 1
 37 536 l 1
 41 579 l 2
 41 578.936 41.2502 578.905 41.7321 578.905 c 0
 48.7757 578.905 105.33 585.576 154 594 c 0
 256 610 258 612 259 612 c 2
 265 595 l 1
 238 572 230 556 227 509 c 1xa0
EndSplineSet
Validated: 1
EndChar

StartChar: two.lf
Encoding: 1114115 -1 72
Width: 487
Flags: HMW
HStem: -12 22G<37 37> 0 65<92 309> 544 69<192 239>
VStem: 302 90<439 487>
LayerCount: 2
Fore
SplineSet
37 -12 m 1xb0
 27 6 l 1
 128 122 l 1
 242 265 302 382 302 460 c 0
 302 515 269 544 209 544 c 0
 147 544 91 504 53 432 c 1
 44 432 l 1
 33 478 l 1
 68 553 154 612 229 612 c 0
 327 612 392 560 392 479 c 0
 392 399 329 295 148 72 c 1
 153 65 l 1
 309 65 l 2
 384 65 404 80 424 158 c 1
 465 163 l 1
 465 163 441 75 433 0 c 1
 421 -7 l 1
 421 -7 180 0 92 0 c 1x70
 37 -12 l 1xb0
EndSplineSet
Validated: 1
EndChar

StartChar: three.lf
Encoding: 1114116 -1 73
Width: 434
Flags: HMW
HStem: -12 72<118 172> 548 65<181 213>
VStem: 267 85<465 494> 301 77<148 219>
LayerCount: 2
Fore
SplineSet
44 62 m 1xd0
 49 69 l 1
 78 63 105 59 131 59 c 0
 227 59 301 111 301 179 c 0xd0
 301 259 246 294 118 294 c 1
 113 299 l 1
 108 335 l 1
 174 351 l 1
 228 378 267 427 267 471 c 0
 267 517 236 548 189 548 c 0
 150 548 102 529 71 501 c 1
 60 501 l 1
 50 544 l 1
 50 544 143 612 219 612 c 0
 296 612 352 563 352 493 c 0xe0
 352 439 309 382 240 347 c 1
 240 340 l 1
 331 316 378 268 378 198 c 0
 378 100 235 -12 110 -12 c 0
 64 -12 45 9 44 62 c 1xd0
EndSplineSet
Validated: 1
EndChar

StartChar: four.lf
Encoding: 1114117 -1 74
Width: 455
Flags: HMW
HStem: -11 22G<255 255> 187 55<2 255> 452 20G<246 246 246 255> 592 20G<289 289> 593 20G<292 293>
LayerCount: 2
Fore
SplineSet
2 187 m 1xe8
 6 225 l 1
 289 612 l 2xf0
 290 612 292 613 293 613 c 2
 326 603 l 1
 326 243 l 1
 421 243 l 1
 427 234 l 1
 419 178 l 1
 419 178 381 179 326 181 c 1
 327 98 333 8 333 8 c 1
 328 1 l 1
 255 -11 l 1
 249 -2 l 1
 249 -2 254 103 255 183 c 1
 176 185 82 187 2 187 c 1xe8
246 472 m 1
 81 243 l 1
 255 243 l 1
 255 472 l 1
 246 472 l 1
EndSplineSet
Validated: 1
EndChar

StartChar: five.lf
Encoding: 1114118 -1 75
Width: 430
Flags: HMW
HStem: -12 72<106 161> 314 60<76 120> 527 71 626 20G<384 384>
VStem: 292 78<158 231>
LayerCount: 2
Fore
SplineSet
370 210 m 0
 370 106 225 -12 96 -12 c 0
 52 -12 35 8 32 62 c 1
 37 69 l 1
 66 63 93 59 120 59 c 0
 220 59 292 113 292 190 c 0
 292 271 223 311 76 314 c 1
 67 326 l 1
 77 452 84 586 84 586 c 1
 92 594 l 1
 286 602 l 2
 326 604 339 611 350 642 c 1
 384 646 l 1
 359 525 l 1
 353 519 l 1
 353 519 248 527 129 527 c 1
 120 375 l 1
 291 363 370 310 370 210 c 0
EndSplineSet
Validated: 1
EndChar

StartChar: six.lf
Encoding: 1114119 -1 76
Width: 465
Flags: HMW
HStem: -12 49<207 279 207 286> 292 60<237 266> 592 20G<381 381>
VStem: 41 82<156 216 156 356> 353 76<131 194>
LayerCount: 2
Fore
SplineSet
399 577 m 1
 399 577 187 501 134 301 c 1
 138 299 l 1
 138 299 221 352 252 352 c 0
 370 352 429 262 429 184 c 0
 429 76 346 -12 225 -12 c 0
 111 -12 41 81 41 202 c 0
 41 510 381 612 381 612 c 1
 388 607 l 1
 399 577 l 1
229 292 m 0
 184 292 141 265 126 254 c 1
 124 239 123 223 123 208 c 0
 123 105 169 37 246 37 c 0
 312 37 353 83 353 160 c 0
 353 229 302 292 229 292 c 0
EndSplineSet
Validated: 1
EndChar

StartChar: seven.lf
Encoding: 1114120 -1 77
Width: 430
Flags: HMW
HStem: -12 22G<166 173 166 166> 526 74 584 20G<65 65>
LayerCount: 2
Fore
SplineSet
173 -12 m 1xc0
 166 -12 l 1
 104 6 l 1
 94 29 l 1
 350 530 l 1
 173 523 l 2
 103 520 92 501 79 428 c 1
 39 422 l 1
 39 422 53 521 58 599 c 1
 65 604 l 1xa0
 65 604 126 600 189 600 c 2
 406 600 l 1
 428 571 l 1
 310 333 239 167 199 76 c 1
 173 -12 l 1xc0
EndSplineSet
Validated: 1
EndChar

StartChar: eight.lf
Encoding: 1114121 -1 78
Width: 496
Flags: HMW
HStem: -12 44<221 287 221 292> 565 47<214 271>
VStem: 57 75<120 175> 76 72<444 488> 343 77<436 490>
LayerCount: 2
Fore
SplineSet
57 127 m 0xe8
 57 223 143 274 189 296 c 1
 129 329 76 369 76 445 c 0xd8
 76 531 151 612 260 612 c 0
 339 612 420 567 420 475 c 0
 420 396 360 350 318 327 c 1
 383 292 441 249 441 170 c 0
 441 70 351 -12 232 -12 c 0
 140 -12 57 37 57 127 c 0xe8
257 32 m 0
 317 32 371 78 371 140 c 0
 371 210 298 242 225 278 c 1
 191 264 132 229 132 152 c 0
 132 90 184 32 257 32 c 0
147 476 m 0xd8
 147 413 213 381 282 345 c 1
 310 361 343 394 343 454 c 0
 343 527 299 565 243 565 c 0
 185 565 147 522 147 476 c 0xd8
EndSplineSet
Validated: 1
EndChar

StartChar: nine.lf
Encoding: 1114122 -1 79
Width: 465
Flags: HMW
HStem: -11 22G<85 85> 249 60<199 229> 564 49<187 258>
VStem: 37 76<406 471> 343 82<385 444>
LayerCount: 2
Fore
SplineSet
67 25 m 1
 67 25 279 99 331 299 c 1
 328 302 l 1
 328 302 245 249 214 249 c 0
 96 249 37 339 37 417 c 0
 37 525 120 613 241 613 c 0
 355 613 425 520 425 399 c 0
 425 91 85 -11 85 -11 c 1
 78 -6 l 1
 67 25 l 1
237 309 m 0
 282 309 324 336 340 347 c 1
 342 361 343 377 343 393 c 0
 343 495 296 564 220 564 c 0
 154 564 113 518 113 441 c 0
 113 370 162 309 237 309 c 0
EndSplineSet
Validated: 1
EndChar

StartChar: nine.tf
Encoding: 1114132 -1 80
Width: 460
Flags: HMW
HStem: -11 22G<83 83> 249 60<197 226> 564 49<185 255>
VStem: 36 76<406 471> 340 81<385 444>
LayerCount: 2
Fore
SplineSet
65 25 m 1
 65 25 276 99 327 299 c 1
 324 302 l 1
 324 302 242 249 211 249 c 0
 94 249 36 339 36 417 c 0
 36 525 118 613 238 613 c 0
 352 613 421 520 421 399 c 0
 421 91 83 -11 83 -11 c 1
 77 -6 l 1
 65 25 l 1
233 309 m 0
 278 309 321 336 337 347 c 1
 339 361 340 377 340 393 c 0
 340 495 293 564 218 564 c 0
 152 564 112 518 112 441 c 0
 112 370 159 309 233 309 c 0
EndSplineSet
Validated: 1
EndChar

StartChar: zero.tosf
Encoding: 1114133 -1 81
Width: 450
Flags: HMW
HStem: -12 78<183 274 183 277> 434 83<175 266>
LayerCount: 2
Fore
SplineSet
213 -12 m 0
 95 -12 17 89 17 241 c 0
 17 401 111 517 239 517 c 0
 355 517 433 415 433 269 c 0
 433 106 341 -12 213 -12 c 0
229 66 m 0
 318 66 378 137 378 241 c 0
 378 355 313 434 219 434 c 0
 130 434 73 364 73 256 c 0
 73 143 136 66 229 66 c 0
EndSplineSet
Validated: 1
EndChar

StartChar: one.tosf
Encoding: 1114134 -1 82
Width: 450
Flags: HMW
HStem: -12 22G<81 81> 0 22G<193 250> 497 20G<303 304>
LayerCount: 2
Fore
SplineSet
267 414 m 1xa0
 263 305 261 167 261 115 c 0
 261 61 273 45 319 45 c 0
 347 45 382 48 382 48 c 1
 384 44 l 1
 375 -3 l 1
 375 -3 278 0 221 0 c 0x60
 165 0 81 -12 81 -12 c 1
 88 35 l 1
 175 41 193 62 193 152 c 2
 193 385 l 2
 193 437 168 443 129 443 c 0
 104 443 67 437 67 437 c 1
 63 440 l 1
 69 483 l 1
 68.8323 483 68.7501 483.009 68.7501 483.027 c 0
 68.7501 483.537 137.012 491.268 195 499 c 0
 311 515 302 517 304 517 c 1
 310 500 l 1
 279 477 270 461 267 414 c 1xa0
EndSplineSet
Validated: 1
EndChar

StartChar: two.tosf
Encoding: 1114135 -1 83
Width: 450
Flags: HMW
HStem: -12 22G<29 29> 0 62<82 287> 449 69<177 204>
VStem: 254 89<364 395>
LayerCount: 2
Fore
SplineSet
29 -12 m 1xb0
 18 6 l 1
 95 96 l 2
 205 226 254 314 254 371 c 0
 254 420 226 449 181 449 c 0
 137 449 91 412 61 357 c 1
 53 357 l 1
 42 403 l 1
 75 469 146 517 209 517 c 0
 290 517 343 468 343 394 c 0
 343 333 295 258 137 70 c 1
 141 62 l 1
 287 62 l 2
 358 62 376 78 395 156 c 1
 436 161 l 1
 436 161 416 75 409 0 c 1
 396 -7 l 1
 396 -7 166 0 82 0 c 1x70
 29 -12 l 1xb0
EndSplineSet
Validated: 1
EndChar

StartChar: three.tosf
Encoding: 1114136 -1 84
Width: 450
Flags: HMW
HStem: -108 72<103 162> 453 65<180 211>
VStem: 306 77<71 135>
LayerCount: 2
Fore
SplineSet
28 -33 m 1
 32 -27 l 1
 62 -33 90 -36 117 -36 c 0
 223 -36 306 22 306 100 c 0
 306 170 245 203 115 204 c 1
 110 209 l 1
 104 245 l 1
 173 261 l 1
 230 287 270 336 270 381 c 0
 270 424 234 453 187 453 c 0
 146 453 98 431 66 400 c 1
 55 400 l 1
 45 443 l 2
 44.9923 443.006 l 0
 44.9923 443.763 140.408 517 219 517 c 0
 301 517 356 472 356 402 c 0
 356 348 311 292 240 257 c 1
 240 252 l 1
 335 230 383 187 383 125 c 0
 383 16 229 -108 94 -108 c 0
 47 -108 28 -86 28 -33 c 1
EndSplineSet
Validated: 1
EndChar

StartChar: four.tosf
Encoding: 1114137 -1 85
Width: 450
Flags: HMW
HStem: -108 22G<253 253> 91 55<3 253> 496 20G<286 286> 497 20G<289 290>
LayerCount: 2
Fore
SplineSet
3 91 m 1xd0
 7 129 l 1
 286 516 l 2xe0
 287 516 289 517 290 517 c 2
 324 507 l 1
 324 146 l 1
 418 146 l 1
 424 138 l 1
 416 82 l 1
 416 82 378 83 324 85 c 1
 325 2 331 -88 331 -88 c 1
 326 -95 l 1
 253 -108 l 1
 247 -98 l 1
 247 -98 252 7 253 87 c 1
 175 89 82 91 3 91 c 1xd0
244 376 m 1
 81 146 l 1
 253 146 l 1
 253 376 l 1
 244 376 l 1
EndSplineSet
Validated: 1
EndChar

StartChar: five.tosf
Encoding: 1114138 -1 86
Width: 450
Flags: HMW
HStem: -108 72<94 146> 432 71 530 20G<396 396>
VStem: 302 78<69 134>
LayerCount: 2
Fore
SplineSet
380 131 m 0
 380 6 208 -108 84 -108 c 0
 45 -108 22 -93 19 -33 c 1
 24 -27 l 1
 54 -33 81 -36 108 -36 c 0
 218 -36 302 19 302 100 c 0
 302 167 249 201 84 229 c 1
 75 241 l 1
 85 362 92 490 92 490 c 1
 101 499 l 1
 297 507 l 2
 338 509 351 516 362 547 c 1
 396 551 l 1
 372 430 l 1
 366 424 l 1
 366 424 258 432 137 432 c 1
 130 303 l 1
 269 271 380 228 380 131 c 0
EndSplineSet
Validated: 1
EndChar

StartChar: six.tosf
Encoding: 1114139 -1 87
Width: 450
Flags: HMW
HStem: -12 49<200 269 200 278> 292 60<230 258> 592 20G<370 370>
VStem: 37 81<156 216 156 356> 342 76<131 194>
LayerCount: 2
Fore
SplineSet
388 577 m 1
 388 577 182 501 130 301 c 1
 134 299 l 1
 134 299 215 352 245 352 c 0
 360 352 418 262 418 184 c 0
 418 76 337 -12 218 -12 c 0
 106 -12 37 81 37 202 c 0
 37 510 370 612 370 612 c 1
 377 607 l 1
 388 577 l 1
222 292 m 0
 178 292 136 265 121 254 c 1
 119 239 118 223 118 208 c 0
 118 105 163 37 238 37 c 0
 301 37 342 83 342 160 c 0
 342 229 293 292 222 292 c 0
EndSplineSet
Validated: 1
EndChar

StartChar: seven.tosf
Encoding: 1114140 -1 88
Width: 450
Flags: HMW
HStem: -108 22G<174 181 174 174> 431 74 488 20G<71 71>
LayerCount: 2
Fore
SplineSet
181 -108 m 1xc0
 174 -108 l 1
 112 -89 l 1
 101 -67 l 1
 366 435 l 1
 182 428 l 2
 110 425 98 406 85 333 c 1
 45 327 l 1
 45 327 60 426 65 504 c 1
 71 509 l 1xa0
 71 509 134 505 200 505 c 2
 422 505 l 1
 444 476 l 1
 322 238 248 72 207 -19 c 1
 181 -108 l 1xc0
EndSplineSet
Validated: 1
EndChar

StartChar: eight.tosf
Encoding: 1114141 -1 89
Width: 450
Flags: HMW
HStem: -12 44<199 261 199 266> 565 47<194 246>
VStem: 44 74<120 175> 44 88 313 75<436 490>
LayerCount: 2
Fore
SplineSet
44 127 m 0xe8
 44 223 124 274 167 296 c 1
 111 329 61 369 61 445 c 0
 61 531 134 612 237 612 c 0
 313 612 388 567 388 475 c 0
 388 396 333 350 294 327 c 1
 354 292 409 249 409 170 c 0
 409 70 323 -12 210 -12 c 0
 122 -12 44 37 44 127 c 0xe8
232 32 m 0
 288 32 338 78 338 140 c 0
 338 210 271 242 203 278 c 1
 171 264 118 229 118 152 c 0
 118 90 165 32 232 32 c 0
132 476 m 0xd8
 132 413 194 381 257 345 c 1
 283 361 313 394 313 454 c 0
 313 527 272 565 220 565 c 0
 167 565 132 522 132 476 c 0xd8
EndSplineSet
Validated: 1
EndChar

StartChar: nine.tosf
Encoding: 1114142 -1 90
Width: 450
Flags: HMW
HStem: -108 22G<81 81> 153 60<192 221> 468 49<181 250>
VStem: 33 76<310 374> 333 81<289 348>
LayerCount: 2
Fore
SplineSet
62 -72 m 1
 62 -72 268 3 319 203 c 1
 316 206 l 1
 316 206 236 153 206 153 c 0
 91 153 33 243 33 321 c 0
 33 429 113 517 232 517 c 0
 344 517 414 424 414 303 c 0
 414 -5 81 -108 81 -108 c 1
 74 -102 l 1
 62 -72 l 1
228 213 m 0
 272 213 314 240 330 251 c 1
 332 265 333 281 333 297 c 0
 333 399 287 468 213 468 c 0
 150 468 109 422 109 345 c 0
 109 274 155 213 228 213 c 0
EndSplineSet
Validated: 1
EndChar

StartChar: asterisk
Encoding: 42 42 91
Width: 466
Flags: HMW
HStem: 427 22G<292 292> 734 20G<251 267>
LayerCount: 2
Fore
SplineSet
88 682 m 1
 88 682 144 652 190 617 c 1
 184 584 l 1
 178 579 l 1
 126 596 70 608 70 608 c 1
 70 608 70 647 79 678 c 1
 88 682 l 1
93 484 m 1
 93 484 138 529 186 562 c 1
 216 546 l 1
 219 539 l 1
 186 495 158 444 158 444 c 1
 158 444 121 457 94 475 c 1
 93 484 l 1
283 428 m 1
 283 428 254 486 238 541 c 1
 262 564 l 1
 270 565 l 1
 302 520 340 477 340 477 c 1
 340 477 318 446 292 427 c 1
 283 428 l 1
394 591 m 1
 394 591 342.16 583.71 290.239 583.71 c 0
 284.47 583.71 278.7 583.8 273 584 c 1
 259 613 l 1
 260 622 l 1
 313 638 366 662 366 662 c 1
 366 662 388 630 398 600 c 1
 394 591 l 1
274 748 m 1
 274 748 263 685 245 631 c 1
 210 626 l 1
 204 630 l 1
 204 685 199 742 199 742 c 1
 199 742 235 755 267 755 c 1
 274 748 l 1
EndSplineSet
Validated: 1
EndChar

StartChar: backslash
Encoding: 92 92 92
Width: 336
Flags: HMW
HStem: -113 22G<249 298 249 249> 671 20G<46 93 93 93>
LayerCount: 2
Fore
SplineSet
38 681 m 1
 46 691 l 1
 93 691 l 1
 211 231 l 2
 251 75 305 -104 305 -104 c 1
 298 -113 l 1
 249 -113 l 1
 249 -113 206 51 163 220 c 1
 119 386 38 681 38 681 c 1
EndSplineSet
Validated: 1
EndChar

StartChar: bullet
Encoding: 8226 8226 93
Width: 348
Flags: HMW
HStem: 120 226<142 206>
LayerCount: 2
Fore
SplineSet
172 120 m 0
 102 120 61 172 61 230 c 0
 61 293 108 346 175 346 c 0
 244 346 288 293 288 234 c 0
 288 171 241 120 172 120 c 0
EndSplineSet
Validated: 1
EndChar

StartChar: colon
Encoding: 58 58 94
Width: 243
Flags: HMW
HStem: -12 122<101 135> 274 122<101 135>
LayerCount: 2
Fore
SplineSet
115 -12 m 0
 76 -12 57 16 57 46 c 0
 57 81 82 110 121 110 c 0
 159 110 179 83 179 51 c 0
 179 16 155 -12 115 -12 c 0
115 274 m 0
 76 274 57 303 57 333 c 0
 57 368 82 396 121 396 c 0
 159 396 179 370 179 338 c 0
 179 303 155 274 115 274 c 0
EndSplineSet
Validated: 1
EndChar

StartChar: period
Encoding: 46 46 95
Width: 243
Flags: HMW
HStem: -12 122<105 139>
LayerCount: 2
Fore
SplineSet
119 -12 m 0
 80 -12 61 16 61 46 c 0
 61 81 86 110 125 110 c 0
 163 110 183 83 183 51 c 0
 183 16 159 -12 119 -12 c 0
EndSplineSet
Validated: 1
EndChar

StartChar: comma
Encoding: 44 44 96
Width: 243
Flags: HMW
HStem: -161 22G<34 34> 81 20G<114 139>
LayerCount: 2
Fore
SplineSet
63 60 m 1
 66 75 l 1
 79 85 102 101 125 101 c 0
 154 101 177 74 177 22 c 0
 177 -57 95 -125 34 -161 c 1
 15 -145 l 1
 15 -135 l 1
 61 -103 96 -55 96 -11 c 0
 96 18 80 44 63 60 c 1
EndSplineSet
Validated: 1
EndChar

StartChar: ellipsis
Encoding: 8230 8230 97
Width: 673
Flags: HMW
HStem: -12 122<105 139 321 354 536 569>
LayerCount: 2
Fore
SplineSet
334 -12 m 0
 295 -12 276 16 276 46 c 0
 276 81 301 110 340 110 c 0
 378 110 398 83 398 51 c 0
 398 16 374 -12 334 -12 c 0
549 -12 m 0
 510 -12 492 16 492 46 c 0
 492 81 516 110 555 110 c 0
 593 110 613 83 613 51 c 0
 613 16 589 -12 549 -12 c 0
119 -12 m 0
 80 -12 61 16 61 46 c 0
 61 81 86 110 125 110 c 0
 163 110 183 83 183 51 c 0
 183 16 159 -12 119 -12 c 0
EndSplineSet
Validated: 1
EndChar

StartChar: exclam
Encoding: 33 33 98
Width: 291
Flags: HMW
HStem: -12 122<106 140> 690 20G<193 193>
LayerCount: 2
Fore
SplineSet
120 -12 m 0
 81 -12 62 16 62 46 c 0
 62 81 87 110 126 110 c 0
 164 110 184 83 184 51 c 0
 184 16 160 -12 120 -12 c 0
109 215 m 1
 100 682 l 1
 108 692 l 1
 193 711 l 1
 202 699 l 1
 148 214 l 1
 120 207 l 1
 109 215 l 1
EndSplineSet
Validated: 1
EndChar

StartChar: numbersign
Encoding: 35 35 99
Width: 509
Flags: HMW
HStem: 36 22G<97 97 253 253> 213 47 371 45<330 366> 566 20G<253 253 409 409>
LayerCount: 2
Fore
SplineSet
52 371 m 1
 49 381 l 1
 65 419 l 1
 174 418 l 1
 212 582 l 1
 253 587 l 1
 261 581 l 1
 221 417 l 1
 275 417 l 1
 330 416 l 1
 368 582 l 1
 409 587 l 1
 417 581 l 1
 377 416 l 1
 487 416 l 1
 492 407 l 1
 472 370 l 1
 366 371 l 1
 356 331 l 1
 340 258 l 1
 450 258 l 1
 454 249 l 1
 434 212 l 1
 330 213 l 1
 293 44 l 1
 253 36 l 1
 246 42 l 1
 284 214 l 1
 212 215 l 1
 175 214 l 1
 137 44 l 1
 97 36 l 1
 90 42 l 1
 128 214 l 1
 14 213 l 1
 11 223 l 1
 27 261 l 1
 138 260 l 1
 152 318 l 1
 164 372 l 1
 52 371 l 1
201 331 m 1
 184 259 l 1
 238 259 l 1
 294 258 l 1
 307 318 l 1
 319 372 l 1
 250 373 l 1
 211 372 l 1
 201 331 l 1
EndSplineSet
Validated: 1
EndChar

StartChar: question
Encoding: 63 63 100
Width: 368
Flags: HMW
HStem: -12 122<133 166> 641 70<61 108>
LayerCount: 2
Fore
SplineSet
111 208 m 1
 86 331 l 1
 89 345 l 1
 211 423 l 1
 243 445 269 473 269 511 c 0
 269 594 185 634 61 641 c 1
 59 652 l 1
 93 707 l 1
 108 711 l 1
 234 707 337 635 337 542 c 0
 337 427 244 391 167 336 c 1
 164 327 l 1
 185 229 l 1
 182 221 l 1
 120 204 l 1
 111 208 l 1
146 -12 m 0
 107 -12 89 16 89 46 c 0
 89 81 114 110 153 110 c 0
 191 110 211 83 211 51 c 0
 211 16 186 -12 146 -12 c 0
EndSplineSet
Validated: 1
EndChar

StartChar: quotedbl
Encoding: 34 34 101
Width: 305
Flags: HMW
HStem: 425 22G<78 78 203 203> 644 20G<132 132 257 257>
LayerCount: 2
Fore
SplineSet
132 665 m 1
 139 656 l 1
 139 656 125 543 103 439 c 1
 78 425 l 1
 67 427 l 1
 67.6154 444.385 67.8757 461.698 67.8757 478.551 c 0
 67.8757 571.243 60 650 60 650 c 1
 132 665 l 1
257 665 m 1
 264 656 l 1
 264 656 250 543 228 439 c 1
 203 425 l 1
 191 427 l 1
 191.667 445.833 191.944 464.583 191.944 482.755 c 0
 191.944 573.611 185 650 185 650 c 1
 257 665 l 1
EndSplineSet
Validated: 1
EndChar

StartChar: quotesingle
Encoding: 39 39 102
Width: 180
Flags: HMW
HStem: 425 22G<78 78> 644 20G<132 132>
LayerCount: 2
Fore
SplineSet
132 665 m 1
 139 656 l 1
 139 656 125 543 103 439 c 1
 78 425 l 1
 67 427 l 1
 67.6154 444.385 67.8757 461.698 67.8757 478.551 c 0
 67.8757 571.243 60 650 60 650 c 1
 132 665 l 1
EndSplineSet
Validated: 1
EndChar

StartChar: semicolon
Encoding: 59 59 103
Width: 243
Flags: HMW
HStem: -161 22G<34 34> 101 173<114 135 95 139> 274 122<101 135>
LayerCount: 2
Fore
SplineSet
63 60 m 1xc0
 66 75 l 1
 79 85 102 101 125 101 c 0
 154 101 177 74 177 22 c 0
 177 -57 95 -125 34 -161 c 1
 15 -145 l 1
 15 -135 l 1
 61 -103 96 -55 96 -11 c 0
 96 18 80 44 63 60 c 1xc0
115 274 m 0
 76 274 57 303 57 333 c 0
 57 368 82 396 121 396 c 0xa0
 159 396 179 370 179 338 c 0
 179 303 155 274 115 274 c 0
EndSplineSet
Validated: 1
EndChar

StartChar: slash
Encoding: 47 47 104
Width: 336
Flags: HMW
HStem: -113 22G<42 91 42 42> 671 20G<247 294 294 294>
LayerCount: 2
Fore
SplineSet
294 691 m 1
 302 681 l 1
 302 681 221 386 177 220 c 1
 134 51 91 -113 91 -113 c 1
 42 -113 l 1
 35 -104 l 1
 35 -104 89 75 129 231 c 2
 247 691 l 1
 294 691 l 1
EndSplineSet
Validated: 1
EndChar

StartChar: underscore
Encoding: 95 95 105
Width: 468
Flags: HMW
HStem: -147 22G<0 20> -145 59 -103 20G<469 469>
LayerCount: 2
Fore
SplineSet
469 -83 m 2xa0
 475 -93 l 1
 467 -145 l 1x40
 303 -145 41 -147 0 -147 c 1xa0
 -6 -138 l 1
 5 -88 l 1
 5 -88 159 -89 250 -89 c 0
 291 -89 345 -88 390 -86 c 0x40
 434 -85 469 -84 469 -83 c 2xa0
EndSplineSet
Validated: 1
EndChar

StartChar: braceleft
Encoding: 123 123 106
Width: 316
Flags: HMW
HStem: -136 22G<191 247> 644 20G<191 247>
VStem: 104 73<-48 -6 -48 13 534 575>
LayerCount: 2
Fore
SplineSet
47 253 m 1
 51 274 l 1
 100 287 146 315 146 359 c 0
 146 406 104 486 104 546 c 0
 104 609 149 665 233 665 c 0
 260 665 292 658 292 658 c 1
 295 653 l 1
 287 623 l 1
 287 623 257 628 240 628 c 0
 195 628 177 594 177 557 c 0
 177 511 205 425 205 374 c 0
 205 312 165 282 130 271 c 1
 130 265 l 1
 169 251 205 220 205 158 c 0
 205 104 177 17 177 -30 c 0
 177 -67 195 -99 241 -99 c 0
 261 -99 292 -93 292 -93 c 1
 295 -99 l 1
 287 -128 l 1
 287 -128 262 -136 231 -136 c 0
 150 -136 104 -80 104 -17 c 0
 104 43 146 121 146 163 c 0
 146 214 102 241 47 253 c 1
EndSplineSet
Validated: 1
EndChar

StartChar: braceright
Encoding: 125 125 107
Width: 316
Flags: HMW
HStem: -136 22G<70 125> 644 20G<70 125>
VStem: 139 73<-47 -6 535 577>
LayerCount: 2
Fore
SplineSet
269 275 m 1
 265 254 l 1
 216 241 170 213 170 169 c 0
 170 122 212 43 212 -17 c 0
 212 -80 167 -136 83 -136 c 0
 56 -136 25 -130 25 -130 c 1
 22 -125 l 1
 30 -94 l 1
 30 -94 60 -99 77 -99 c 0
 122 -99 139 -66 139 -29 c 0
 139 17 112 104 112 155 c 0
 112 217 151 246 186 257 c 1
 186 263 l 1
 147 277 112 309 112 371 c 0
 112 425 139 511 139 558 c 0
 139 595 122 628 76 628 c 0
 56 628 25 622 25 622 c 1
 22 628 l 1
 30 656 l 1
 30 656 54 665 85 665 c 0
 166 665 212 609 212 546 c 0
 212 486 170 408 170 366 c 0
 170 315 214 287 269 275 c 1
EndSplineSet
Validated: 1
EndChar

StartChar: bracketleft
Encoding: 91 91 108
Width: 316
Flags: HMW
HStem: -140 22G<285 285> 635 20G<287 287>
LayerCount: 2
Fore
SplineSet
285 -140 m 1
 98 -129 l 1
 98 -129 110 154 110 256 c 0
 110 358 98 644 98 644 c 1
 287 655 l 1
 291 649 l 1
 285 617 l 1
 168 593 l 1
 168 -78 l 1
 287 -102 l 1
 291 -110 l 1
 285 -140 l 1
EndSplineSet
Validated: 1
EndChar

StartChar: bracketright
Encoding: 93 93 109
Width: 316
Flags: HMW
HStem: -140 22G<30 30> 635 20G<32 32>
LayerCount: 2
Fore
SplineSet
32 655 m 1
 218 644 l 1
 218 644 207 361 207 259 c 0
 207 157 218 -129 218 -129 c 1
 30 -140 l 1
 26 -134 l 1
 32 -102 l 1
 148 -78 l 1
 148 593 l 1
 30 617 l 1
 26 625 l 1
 32 655 l 1
EndSplineSet
Validated: 1
EndChar

StartChar: parenleft
Encoding: 40 40 110
Width: 316
Flags: HMW
HStem: -150 22G<275 280 275 275> 644 20G<279 283 283 283>
LayerCount: 2
Fore
SplineSet
86 167 m 2
 86 344 l 2
 86 595 279 665 279 665 c 1
 283 665 l 1
 296 635 l 1
 295 631 l 1
 295 631 155 571 155 359 c 2
 155 182 l 2
 155 -46 301 -118 301 -118 c 1
 301 -123 l 1
 280 -150 l 1
 275 -150 l 1
 275 -150 86 -81 86 167 c 2
EndSplineSet
Validated: 1
EndChar

StartChar: parenright
Encoding: 41 41 111
Width: 316
Flags: HMW
HStem: -150 22G<34 38 34 34> 644 20G<37 41 41 41>
LayerCount: 2
Fore
SplineSet
230 348 m 2
 230 171 l 2
 230 -80 38 -150 38 -150 c 1
 34 -150 l 1
 20 -120 l 1
 22 -116 l 1
 22 -116 162 -56 162 156 c 2
 162 333 l 2
 162 561 15 633 15 633 c 1
 15 638 l 1
 37 665 l 1
 41 665 l 1
 41 665 230 596 230 348 c 2
EndSplineSet
Validated: 1
EndChar

StartChar: emdash
Encoding: 8212 8212 112
Width: 940
Flags: HMW
HStem: 229 22G<0 42> 231 56 273 20G<933 940>
LayerCount: 2
Fore
SplineSet
940 294 m 1xa0
 946 284 l 1
 938 231 l 1x40
 608 231 84 229 0 229 c 1xa0
 -6 239 l 1
 5 289 l 1
 5 289 309 288 485 288 c 0x40
 649 288 926 294 940 294 c 1xa0
EndSplineSet
Validated: 1
EndChar

StartChar: endash
Encoding: 8211 8211 113
Width: 468
Flags: HMW
HStem: 229 22G<0 20> 231 59 273 20G<469 469>
LayerCount: 2
Fore
SplineSet
469 294 m 2xa0
 475 284 l 1
 467 231 l 1x40
 303 231 41 229 0 229 c 1xa0
 -6 239 l 1
 5 289 l 1
 5 289 159 288 250 288 c 0
 291 288 345 289 390 291 c 0x40
 434 292 469 293 469 294 c 2xa0
EndSplineSet
Validated: 1
EndChar

StartChar: hyphen
Encoding: 45 45 114
Width: 331
Flags: HMW
HStem: 215 22G<44 44> 286 20G<288 288>
LayerCount: 2
Fore
SplineSet
288 306 m 5
 295 297 l 5
 290 242 l 5
 44 215 l 5
 37 223 l 5
 43 276 l 5
 221 297 l 6
 268 302 288 306 288 306 c 5
EndSplineSet
Validated: 1
EndChar

StartChar: guillemotleft
Encoding: 171 171 115
Width: 437
Flags: HMW
HStem: 47 22G<197 197 367 367> 389 20G<197 197 367 367>
LayerCount: 2
Fore
SplineSet
367 410 m 1
 389 394 l 1
 390 384 l 1
 281 231 l 1
 390 73 l 1
 389 62 l 1
 367 47 l 1
 289 127 190 217 190 217 c 1
 190 232 l 1
 190 232 289 326 367 410 c 1
197 410 m 1
 219 394 l 1
 220 384 l 1
 111 231 l 1
 220 73 l 1
 219 62 l 1
 197 47 l 1
 119 127 20 217 20 217 c 1
 20 232 l 1
 20 232 119 326 197 410 c 1
EndSplineSet
Validated: 1
EndChar

StartChar: guilsinglleft
Encoding: 8249 8249 116
Width: 267
Flags: HMW
HStem: 47 22G<197 197> 389 20G<197 197>
LayerCount: 2
Fore
SplineSet
197 410 m 1
 219 394 l 1
 220 384 l 1
 111 231 l 1
 220 73 l 1
 219 62 l 1
 197 47 l 1
 119 127 20 217 20 217 c 1
 20 232 l 1
 20 232 119 326 197 410 c 1
EndSplineSet
Validated: 1
EndChar

StartChar: guilsinglright
Encoding: 8250 8250 117
Width: 267
Flags: HMW
HStem: 47 22G<71 71> 389 20G<71 71>
LayerCount: 2
Fore
SplineSet
71 47 m 1
 48 62 l 1
 47 73 l 1
 157 225 l 1
 47 384 l 1
 48 394 l 1
 71 410 l 1
 149 330 247 240 247 240 c 1
 247 224 l 1
 247 224 149 131 71 47 c 1
EndSplineSet
Validated: 1
EndChar

StartChar: quotedblbase
Encoding: 8222 8222 118
Width: 406
Flags: HMW
HStem: -130 22G<50 50 209 209> 81 20G<115 141 273 300>
LayerCount: 2
Fore
SplineSet
65 60 m 1
 67 75 l 1
 80 85 103 101 126 101 c 0
 157 101 181 74 181 29 c 0
 181 -45 106 -100 50 -130 c 1
 32 -115 l 1
 32 -104 l 1
 73 -78 105 -38 105 -3 c 0
 105 25 88 47 65 60 c 1
223 60 m 1
 225 75 l 1
 238 85 262 101 285 101 c 0
 316 101 340 74 340 29 c 0
 340 -45 265 -100 209 -130 c 1
 190 -115 l 1
 190 -104 l 1
 231 -78 264 -38 264 -3 c 0
 264 25 246 47 223 60 c 1
EndSplineSet
Validated: 1
EndChar

StartChar: quotedblleft
Encoding: 8220 8220 119
Width: 338
Flags: HMW
HStem: 433 22G<69 95 227 254> 644 20G<160 160 318 318>
LayerCount: 2
Fore
SplineSet
304 474 m 1
 302 460 l 1
 289 450 266 433 243 433 c 0
 212 433 187 461 187 506 c 0
 187 580 262 635 318 665 c 1
 337 649 l 1
 337 639 l 1
 296 613 263 573 263 538 c 0
 263 510 281 487 304 474 c 1
145 474 m 1
 143 460 l 1
 130 450 107 433 84 433 c 0
 53 433 29 461 29 506 c 0
 29 580 104 635 160 665 c 1
 178 649 l 1
 178 639 l 1
 137 613 104 573 104 538 c 0
 104 510 122 487 145 474 c 1
EndSplineSet
Validated: 1
EndChar

StartChar: quoteleft
Encoding: 8216 8216 120
Width: 180
Flags: HMW
HStem: 433 22G<69 95> 644 20G<160 160>
LayerCount: 2
Fore
SplineSet
145 474 m 1
 143 460 l 1
 130 450 107 433 84 433 c 0
 53 433 29 461 29 506 c 0
 29 580 104 635 160 665 c 1
 178 649 l 1
 178 639 l 1
 137 613 104 573 104 538 c 0
 104 510 122 487 145 474 c 1
EndSplineSet
Validated: 1
EndChar

StartChar: quotedblright
Encoding: 8221 8221 121
Width: 338
Flags: HMW
HStem: 433 22G<20 20 179 179> 644 20G<85 112 244 270>
LayerCount: 2
Fore
SplineSet
194 624 m 1
 196 638 l 1
 209 648 232 665 255 665 c 0
 286 665 310 637 310 592 c 0
 310 518 235 463 179 433 c 1
 161 449 l 1
 161 459 l 1
 202 485 234 525 234 560 c 0
 234 588 217 611 194 624 c 1
35 624 m 1
 37 638 l 1
 50 648 73 665 96 665 c 0
 127 665 152 637 152 592 c 0
 152 518 76 463 20 433 c 1
 2 449 l 1
 2 459 l 1
 43 485 76 525 76 560 c 0
 76 588 58 611 35 624 c 1
EndSplineSet
Validated: 1
EndChar

StartChar: quoteright
Encoding: 8217 8217 122
Width: 180
Flags: HMW
HStem: 433 22G<20 20> 644 20G<85 112>
LayerCount: 2
Fore
SplineSet
35 624 m 1
 37 638 l 1
 50 648 73 665 96 665 c 0
 127 665 152 637 152 592 c 0
 152 518 76 463 20 433 c 1
 2 449 l 1
 2 459 l 1
 43 485 76 525 76 560 c 0
 76 588 58 611 35 624 c 1
EndSplineSet
Validated: 1
EndChar

StartChar: quotesinglbase
Encoding: 8218 8218 123
Width: 243
Flags: HMW
HStem: -161 22G<34 34> 81 20G<114 139>
LayerCount: 2
Fore
SplineSet
63 60 m 1
 66 75 l 1
 79 85 102 101 125 101 c 0
 154 101 177 74 177 22 c 0
 177 -57 95 -125 34 -161 c 1
 15 -145 l 1
 15 -135 l 1
 61 -103 96 -55 96 -11 c 0
 96 18 80 44 63 60 c 1
EndSplineSet
Validated: 1
EndChar

StartChar: dollar
Encoding: 36 36 126
Width: 470
Flags: HMW
HStem: -158 22G<184 184> -9 49<193 197> 466 52<237 242> 653 20G<283 283>
VStem: 337 73
LayerCount: 2
Fore
SplineSet
289 665 m 1
 274 519 l 1
 346 517 396 500 396 500 c 1
 400 493 l 1
 400 493 386 430 381 357 c 1
 341 353 l 1
 335 357 l 1
 335 357 337 372 337 394 c 0
 337 439 319 460 269 465 c 1
 253 295 l 1
 254 294 255 294 256 294 c 0
 328 260 410 223 410 147 c 0
 410 62 335 1 224 -8 c 1
 211 -155 l 1
 184 -158 l 1
 179 -151 l 1
 193 -9 l 1
 113 -8 59 18 59 18 c 1
 54 28 l 1
 54 28 66 92 66 166 c 1
 112 170 l 1
 112 72 128 44 197 40 c 1
 214 219 l 1
 209 221 204 223 200 226 c 0
 132 259 63 296 63 368 c 0
 63 449 139 510 242 518 c 1
 256 670 l 1
 283 674 l 1
 289 665 l 1
326 119 m 0
 326 157 290 181 245 204 c 1
 229 40 l 1
 286 44 326 74 326 119 c 0
142 395 m 0
 142 358 177 334 222 310 c 1
 237 466 l 1
 183 464 142 435 142 395 c 0
EndSplineSet
Validated: 1
EndChar

StartChar: asciitilde
Encoding: 126 126 127
Width: 518
Flags: HMW
HStem: 207 22G 219 66<360 383> 263 66<138 161> 321 20G<449 455 455 455>
LayerCount: 2
Fore
SplineSet
73 207 m 1xa0
 67 207 l 1
 44 228 l 1
 44 233 l 1
 122 325 l 1
 138 329 l 1xa0
 193 329 337 285 384 285 c 0
 409 285 449 341 449 341 c 1
 455 341 l 1
 477 319 l 1
 477 314 l 1
 399 223 l 1
 383 219 l 1x50
 328 219 184 263 137 263 c 0
 112 263 73 207 73 207 c 1xa0
EndSplineSet
Validated: 1
EndChar

StartChar: divide
Encoding: 247 247 128
Width: 518
Flags: HMW
HStem: 30 122<238 271> 241 57<229 259> 387 122<238 271>
CounterMasks: 1 e0
LayerCount: 2
Fore
SplineSet
494 304 m 1
 500 294 l 1
 492 242 l 1
 259 241 l 2
 167 241 25 240 25 240 c 1
 18 249 l 1
 30 299 l 1
 30 299 183 298 274 298 c 0
 356 298 494 304 494 304 c 1
251 30 m 0
 212 30 194 58 194 88 c 0
 194 123 218 152 257 152 c 0
 295 152 315 125 315 93 c 0
 315 58 291 30 251 30 c 0
251 387 m 0
 212 387 194 415 194 445 c 0
 194 480 218 509 257 509 c 0
 295 509 315 483 315 451 c 0
 315 416 291 387 251 387 c 0
EndSplineSet
Validated: 1
EndChar

StartChar: equal
Encoding: 61 61 129
Width: 518
Flags: HMW
HStem: 161 22G<25 25> 162 57<229 259> 323 57<229 259> 366 20G<494 494>
LayerCount: 2
Fore
SplineSet
494 225 m 1x60
 500 215 l 1
 492 163 l 1
 259 162 l 2x50
 167 162 25 161 25 161 c 1xa0
 18 170 l 1
 30 220 l 1
 30 220 183 219 274 219 c 0
 356 219 494 225 494 225 c 1x60
494 386 m 1
 500 376 l 1
 492 324 l 1
 259 323 l 2
 167 323 25 322 25 322 c 1
 18 331 l 1
 30 381 l 1
 30 381 183 380 274 380 c 0x60
 356 380 494 386 494 386 c 1
EndSplineSet
Validated: 1
EndChar

StartChar: greater
Encoding: 62 62 130
Width: 518
Flags: HMW
HStem: 72 22G<71 71> 455 20G<83 83>
LayerCount: 2
Fore
SplineSet
478 302 m 1
 486 291 l 1
 484 243 l 1
 276 155 l 2
 183 115 71 72 71 72 c 1
 61 77 l 1
 54 128 l 1
 54 128 169 168 253 203 c 1
 411 264 l 1
 411 270 l 1
 239 342 l 1
 155 379 53 423 53 423 c 1
 52 434 l 1
 83 475 l 1
 83 475 191 424 275 388 c 0
 350 355 478 302 478 302 c 1
EndSplineSet
Validated: 1
EndChar

StartChar: less
Encoding: 60 60 131
Width: 518
Flags: HMW
HStem: 72 22G<435 435> 455 20G<447 447>
LayerCount: 2
Fore
SplineSet
40 245 m 1
 32 256 l 1
 34 304 l 1
 242 392 l 2
 335 432 447 475 447 475 c 1
 457 470 l 1
 464 419 l 1
 464 419 349 379 265 344 c 1
 108 283 l 1
 108 276 l 1
 280 205 l 1
 364 168 465 124 465 124 c 1
 466 113 l 1
 435 72 l 1
 435 72 327 123 243 159 c 0
 168 192 40 245 40 245 c 1
EndSplineSet
Validated: 1
EndChar

StartChar: multiply
Encoding: 215 215 132
Width: 518
Flags: HMW
HStem: 82 22G<116 116> 439 20G<401 401>
LayerCount: 2
Fore
SplineSet
401 460 m 1
 413 457 l 1
 444 414 l 1
 299 267 l 1
 358 209 447 129 447 129 c 1
 444 117 l 1
 401 86 l 1
 259 227 l 1
 194 162 116 82 116 82 c 1
 104 85 l 1
 77 128 l 1
 77 128 155 204 218 267 c 1
 153 330 70 415 70 415 c 1
 72 426 l 1
 116 453 l 1
 116 453 196 371 259 308 c 1
 316 367 401 460 401 460 c 1
EndSplineSet
Validated: 1
EndChar

StartChar: percent
Encoding: 37 37 133
Width: 687
Flags: HMW
HStem: -97 22G<118 118> -12 66<511 554 511 570> 251 68<493 554> 334 66<164 207 164 223> 597 68<145 207> 674 20G<561 561>
LayerCount: 2
Fore
SplineSet
188 399 m 0
 225 399 280 414 280 488 c 0
 280 548 241 597 173 597 c 0
 118 597 84 560 84 508 c 0
 84 430 139 399 188 399 c 0
174 334 m 0
 87 334 36 402 36 494 c 0
 36 591 99 665 190 665 c 0
 285 665 328 587 328 512 c 0
 328 419 272 334 174 334 c 0
536 53 m 0
 573 53 627 68 627 142 c 0
 627 202 588 251 520 251 c 0
 465 251 431 214 431 162 c 0
 431 84 487 53 536 53 c 0
521 -12 m 0
 434 -12 383 55 383 147 c 0
 383 244 447 318 538 318 c 0
 633 318 675 241 675 166 c 0
 675 73 619 -12 521 -12 c 0
601 675 m 1
 606 660 l 1
 606 660 428 395 338 251 c 0
 246 103 118 -97 118 -97 c 1
 79 -78 l 1
 74 -66 l 1
 74 -66 208 139 299 282 c 2
 561 694 l 1
 601 675 l 1
EndSplineSet
Validated: 1
EndChar

StartChar: plus
Encoding: 43 43 134
Width: 518
Flags: HMW
HStem: 31 22G<236 236> 241 57<183 227 183 227> 492 20G<281 281>
LayerCount: 2
Fore
SplineSet
281 512 m 1
 291 506 l 1
 291 506 285 380 285 298 c 1
 367 298 494 304 494 304 c 1
 500 294 l 1
 492 242 l 1
 285 241 l 1
 285 151 286 42 286 42 c 1
 236 31 l 1
 226 37 l 1
 226 37 227 151 227 241 c 1
 137 241 25 240 25 240 c 1
 18 249 l 1
 30 299 l 1
 30 299 138 298 227 298 c 1
 228 504 l 1
 281 512 l 1
EndSplineSet
Validated: 1
EndChar

StartChar: plusminus
Encoding: 177 177 135
Width: 518
Flags: HMW
HStem: -77 22G<25 45> -75 59 254 57<183 227 183 227 285 319> 495 20G<281 281>
LayerCount: 2
Fore
SplineSet
281 515 m 1x70
 291 509 l 1
 291 509 285 393 285 311 c 1
 367 311 494 317 494 317 c 1
 500 307 l 1
 492 255 l 1
 423 255 354 254 285 254 c 1
 285 167 286 66 286 66 c 1
 236 54 l 1
 226 60 l 1
 226 60 227 166 227 254 c 1
 137 254 25 253 25 253 c 1
 18 262 l 1
 30 312 l 1
 30 312 138 311 227 311 c 1
 227 377 228 441 228 507 c 1
 281 515 l 1x70
494 -12 m 2
 500 -23 l 1
 492 -75 l 1x70
 328 -75 66 -77 25 -77 c 1xb0
 18 -68 l 1
 30 -17 l 1
 30 -17 183 -18 274 -18 c 0
 315 -18 370 -17 415 -15 c 0
 459 -14 494 -13 494 -12 c 2
EndSplineSet
Validated: 1
EndChar

StartChar: ampersand
Encoding: 38 38 136
Width: 716
Flags: HMW
HStem: -29 22G<606 617> -12 65<252 310> 376 59 604 60<253 289>
VStem: 56 77<144 210 144 223> 108 72<493 548>
LayerCount: 2
Fore
SplineSet
334 308 m 2x74
 498 167 l 1
 510 192 516 221 516 255 c 0
 516 337 490 376 436 376 c 0
 408 376 378 367 378 367 c 1
 364 411 l 1
 364 411 385 427 418 429 c 2
 629 441 l 1
 699 447 706 449 708 453 c 1
 718 428 l 1
 705 396 l 1
 696 379 686 376 633 376 c 2
 530 376 l 1
 527 370 l 1
 554 346 570 309 570 269 c 0
 570 226 556 181 529 140 c 1
 673 19 l 1
 673 3 l 1
 673 3 624 -29 609 -29 c 0xb8
 603 -29 559 8 479 80 c 1
 422 23 345 -12 275 -12 c 0
 141 -12 56 55 56 164 c 0x78
 56 282 191 334 191 334 c 1
 191 341 l 1
 134 401 108 453 108 502 c 0
 108 595 195 665 311 665 c 0
 386 665 435 641 435 641 c 1
 437 626 l 1
 388 550 l 1
 378 549 l 1
 330 593 308 604 269 604 c 0
 214 604 179 573 179 526 c 0
 179 458 213 411 334 308 c 2x74
452 104 m 1
 221 310 l 1
 168 285 133 236 133 184 c 0
 133 104 201 52 304 52 c 0x78
 360 52 413 70 452 104 c 1
EndSplineSet
Validated: 1
EndChar

StartChar: at
Encoding: 64 64 137
Width: 851
Flags: HMW
HStem: -214 44<441 468> -12 68<525 597> 416 55<396 440> 570 57<342 536>
VStem: 34 73<112 304> 216 72<149 214>
LayerCount: 2
Fore
SplineSet
488 -12 m 0
 463 -12 452 -2 452 17 c 0
 452 36 496 230 496 230 c 1
 489 232 l 1
 421 104 360 32 298 -12 c 1
 243 -12 216 45 216 127 c 0
 216 301 341 471 451 471 c 1
 553 455 l 1
 562 480 l 1
 567 481 l 1
 599 466 l 1
 607 454 l 1
 607 454 548 249 521 59 c 1
 525 55 l 1
 675 55 748 150 748 287 c 0
 748 467 626 570 445 570 c 0
 237 570 106 404 106 211 c 0
 106 13 215 -156 468 -170 c 1
 468 -177 l 1
 441 -214 l 1
 174 -202 34 -20 34 193 c 0
 34 416 204 628 471 628 c 0
 677 628 818 488 818 311 c 0
 818 145 705 -12 488 -12 c 0
317 71 m 0
 353 71 443 200 522 382 c 1
 509 390 461 416 419 416 c 0
 354 416 288 303 288 177 c 0
 288 121 300 71 317 71 c 0
EndSplineSet
Validated: 1
EndChar

StartChar: bar
Encoding: 124 124 138
Width: 380
Flags: HMW
HStem: -275 22G<165 165> 806 20G<219 219>
LayerCount: 2
Fore
SplineSet
219 826 m 1
 230 820 l 1
 230 820 224 468 224 298 c 0
 224 122 225 -264 225 -264 c 1
 165 -275 l 1
 156 -269 l 1
 156 -269 156 100 157 283 c 2
 158 815 l 1
 219 826 l 1
EndSplineSet
Validated: 1
EndChar

StartChar: copyright
Encoding: 169 169 139
Width: 709
Flags: HMW
HStem: -12 41<280 429 280 441> -12 183<327 385 327 441> 433 41<329 384> 571 41<280 429>
LayerCount: 2
Fore
SplineSet
347 134 m 0x70
 243 134 194 207 194 294 c 0
 194 396 263 474 371 474 c 0
 418 474 469 462 469 462 c 1
 471 458 l 1
 471 458 461 418 458 366 c 1
 424 364 l 1
 424 364 425 377 425 388 c 0
 425 414 408 433 359 433 c 0
 299 433 261 392 261 311 c 0
 261 227 292 171 361 171 c 0
 408 171 432 195 442 248 c 1
 475 250 l 1
 475 250 464 200 462 161 c 1
 458 154 l 1
 458 154 412 134 347 134 c 0x70
43 300 m 0
 43 472 181 612 354 612 c 0
 527 612 667 472 667 300 c 0
 667 128 527 -12 354 -12 c 0
 181 -12 43 128 43 300 c 0
86 300 m 0
 86 150 206 29 354 29 c 0xb0
 502 29 624 150 624 300 c 0
 624 450 502 571 354 571 c 0
 206 571 86 450 86 300 c 0
EndSplineSet
Validated: 1
EndChar

StartChar: dagger
Encoding: 8224 8224 140
Width: 502
Flags: HMW
HStem: -95 22G<219 219> 338 63 592 20G<282 282>
LayerCount: 2
Fore
SplineSet
223 315 m 1
 278 318 l 1
 283 -86 l 1
 219 -95 l 1
 208 -87 l 1
 223 315 l 1
278 414 m 1
 223 411 l 1
 218 603 l 1
 282 612 l 1
 293 604 l 1
 278 414 l 1
296 341 m 1
 298 395 l 1
 466 409 l 1
 474 399 l 1
 465 336 l 1
 296 341 l 1
209 395 m 1
 206 341 l 1
 41 326 l 1
 33 337 l 1
 42 400 l 1
 209 395 l 1
EndSplineSet
Validated: 1
EndChar

StartChar: daggerdbl
Encoding: 8225 8225 141
Width: 502
Flags: HMW
HStem: -95 22G<219 219> 116 63 367 63 592 20G<282 282>
LayerCount: 2
Fore
SplineSet
223 92 m 1
 278 95 l 1
 283 -86 l 1
 219 -95 l 1
 208 -87 l 1
 223 92 l 1
296 119 m 1
 298 173 l 1
 466 186 l 1
 474 177 l 1
 465 114 l 1
 296 119 l 1
209 173 m 1
 206 119 l 1
 41 103 l 1
 33 115 l 1
 42 178 l 1
 209 173 l 1
223 343 m 1
 280 347 l 1
 280 194 l 1
 223 189 l 1
 223 343 l 1
278 441 m 1
 223 438 l 1
 218 603 l 1
 282 612 l 1
 293 604 l 1
 278 441 l 1
296 370 m 1
 298 424 l 1
 466 437 l 1
 474 428 l 1
 465 365 l 1
 296 370 l 1
209 424 m 1
 206 370 l 1
 41 354 l 1
 33 366 l 1
 42 429 l 1
 209 424 l 1
EndSplineSet
Validated: 1
EndChar

StartChar: degree
Encoding: 176 176 142
Width: 505
Flags: HMW
HStem: 407 43<284 331 284 343> 622 43<284 331>
LayerCount: 2
Fore
SplineSet
99.6298828125 426 m 0
 99.6298828125 536.16015625 186.83984375 623.370117188 297 623.370117188 c 0
 407.16015625 623.370117188 494.370117188 536.16015625 494.370117188 426 c 0
 494.370117188 315.83984375 407.16015625 228.629882812 297 228.629882812 c 0
 186.83984375 228.629882812 99.6298828125 315.83984375 99.6298828125 426 c 0
152.26171875 426 m 0
 152.26171875 346.8984375 217.8984375 281.26171875 297 281.26171875 c 0
 376.1015625 281.26171875 441.73828125 346.8984375 441.73828125 426 c 0
 441.73828125 505.1015625 376.1015625 570.73828125 297 570.73828125 c 0
 217.8984375 570.73828125 152.26171875 505.1015625 152.26171875 426 c 0
EndSplineSet
Validated: 524289
EndChar

StartChar: paragraph
Encoding: 182 182 143
Width: 574
Flags: HMW
HStem: -108 48<217 289 217 311> 606 50<193 335> 632 20G<378 411>
LayerCount: 2
Fore
SplineSet
349 137 m 2xa0
 349 592 l 1
 348 605 349 606 322 606 c 0
 253 606 221 544 221 456 c 0
 221 355 244 298 292 232 c 1
 292 217 l 1
 161 228 43 301 43 456 c 0
 43 567 126 656 259 656 c 0xc0
 310 656 364 652 391 652 c 0
 430 652 519 655 519 655 c 1
 513 612 l 1
 511 608 l 1
 504.994 608.291 499.41 608.44 494.22 608.44 c 0
 445.838 608.44 431.709 595.416 429 562 c 1
 420 502 418 237 418 158 c 0
 418 -9 391 -108 230 -108 c 0
 159 -108 93 -78 93 -11 c 0
 93 17 112 56 132 80 c 1
 147 80 l 1
 147 -12 188 -59 246 -59 c 0
 332 -59 349 -6 349 137 c 2xa0
EndSplineSet
Validated: 1
EndChar

StartChar: registered
Encoding: 174 174 144
Width: 479
Flags: HMW
HStem: 310 22G<182 297> 423 213<180 261 189 261> 485 20G<211 237 211 211> 611 117<218 237>
LayerCount: 2
Fore
SplineSet
31 519 m 0xb0
 31 635 124 728 240 728 c 0
 356 728 449 635 449 519 c 0
 449 403 356 310 240 310 c 0
 124 310 31 403 31 519 c 0xb0
67 519 m 0
 67 424 145 346 240 346 c 0
 335 346 413 424 413 519 c 0
 413 614 335 692 240 692 c 0
 145 692 67 614 67 519 c 0
143 421 m 1
 145 442 l 1
 170 444 171 451 171 481 c 2
 171 595 l 2
 171 610 168 613 159 613 c 2
 147 613 l 1
 145 617 l 1
 148 635 l 1
 148 635 180 634 193 634 c 2
 204 634 l 1
 217 635 236 636 236 636 c 1xc0
 287 636 318 616 318 580 c 0
 318 544 294 526 269 515 c 1
 299 471 l 2
 313 449 327 438 341 438 c 1
 344 434 l 1
 344 417 331 417 304 417 c 0
 291 417 278 426 266 450 c 2
 237 506 l 1
 211 506 l 1xb0
 210 492 210 481 210 472 c 0
 210 470.148 209.995 468.412 209.995 466.783 c 0
 209.995 446.429 210.852 443 234 443 c 1
 237 439 l 1
 234 422 l 1
 234 422 216 423 202 423 c 2
 189 423 l 2xc0
 171 423 143 421 143 421 c 1
214 603 m 0
 213 579 212 556 212 532 c 1
 219 532 232 530 242 529 c 1
 252 533 273 543 273 572 c 0
 273 601 253 611 220 611 c 0xb0
 215 611 214 609 214 603 c 0
EndSplineSet
Validated: 1
EndChar

StartChar: section
Encoding: 167 167 145
Width: 524
Flags: HMW
HStem: -108 48<200 246> 614 50<265 289>
LayerCount: 2
Fore
SplineSet
36 358 m 0
 36 417 81 481 155 525 c 1
 160 601 225 665 305 665 c 0
 358 665 407 641 407 614 c 0
 407 589 395 544 387 535 c 1
 373 535 l 1
 354 582 309 614 268 614 c 0
 235 614 211 588 211 551 c 0
 211 424 488 374 488 213 c 0
 488 144 439 72 369 36 c 1
 366 -25 293 -108 199 -108 c 0
 130 -108 79 -73 79 -26 c 0
 79 5 87 51 94 61 c 1
 110 61 l 1
 123 -12 170 -59 230 -59 c 0
 273 -59 309 -28 309 14 c 0
 309 140 36 188 36 358 c 0
93 392 m 0
 93 277 331 206 365 74 c 1
 407 101 429 134 429 177 c 0
 429 283 189 363 158 489 c 1
 112 461 93 433 93 392 c 0
EndSplineSet
Validated: 1
EndChar

StartChar: asciicircum
Encoding: 94 94 146
Width: 518
Flags: HMW
HStem: 58 22G<420 420> 472 20G<276 276>
LayerCount: 2
Fore
SplineSet
276 493 m 1
 288 484 l 1
 288 484 341 357 374 282 c 0
 410 198 461 89 461 89 c 1
 420 58 l 1
 409 59 l 1
 409 59 365 161 328 245 c 1
 256 417 l 1
 250 417 l 1
 188 259 l 1
 153 175 114 60 114 60 c 1
 62 68 l 1
 57 77 l 1
 57 77 100 190 140 283 c 2
 228 490 l 1
 276 493 l 1
EndSplineSet
Validated: 1
EndChar

StartChar: A
Encoding: 65 65 147
Width: 591
Flags: HMW
HStem: -10 22G<337 337> 0 22G<70 128 450 507> 238 42<260 276 276 290 186 294> 644 20G<334 342 342 342>
LayerCount: 2
Fore
SplineSet
505 116 m 0x70
 521 65 544 48 603 43 c 1
 605 39 l 1
 598 -3 l 1
 598 -3 524 0 489 0 c 0x70
 410 0 337 -10 337 -10 c 1xb0
 334 -3 l 1
 338 37 l 1
 409 42 429 51 429 76 c 0
 429 89 426 106 420 125 c 2
 386 237 l 1
 361 238 309 238 280 238 c 0
 240 238 192 232 168 229 c 1
 130 123 l 2
 124 105 121 92 121 83 c 0
 121 53 139 41 182 41 c 2
 241 41 l 1
 243 37 l 1
 237 -7 l 1
 237 -7 162 0 94 0 c 0
 45 0 -18 -3 -18 -3 c 1
 -10 45 l 1
 28 49 47 67 70 124 c 2
 269 647 l 1
 334 665 l 1
 342 665 l 1
 342 665 428 346 505 116 c 0x70
284 553 m 1
 186 280 l 1
 276 280 l 2
 304 280 348 283 372 285 c 1
 291 553 l 1
 284 553 l 1
EndSplineSet
Validated: 1
EndChar

StartChar: two.sinf
Encoding: 8322 8322 148
Width: 336
Flags: HMW
HStem: -130 22G<31 31> -123 52<74 209> 203 60<135 157>
LayerCount: 2
Fore
SplineSet
31 -130 m 1xa0
 25 -104 l 1
 95 -26 l 1
 159.071 51.8705 193.021 113.224 193.021 155.186 c 0
 193.021 155.795 193.014 156.4 193 157 c 0
 193 188 174 203 140 203 c 0
 103 203 71 180 46 139 c 1
 39 139 l 1
 29 181 l 1
 56 227 111 263 159 263 c 0
 226 263 269 228 269 176 c 0
 269 124 232 61 122 -66 c 1
 125 -71 l 1
 209 -71 l 2
 253 -71 265 -59 276 -12 c 1
 315 -8 l 1
 315 -8 301 -72 296 -122 c 1
 287 -128 l 1
 287 -128 133 -123 74 -123 c 1x60
 31 -130 l 1xa0
EndSplineSet
Validated: 1
EndChar

StartChar: three.sinf
Encoding: 8323 8323 149
Width: 300
Flags: HMW
HStem: -131 57<83 120 83 123> 53 210<84 178> 210 53<128 141>
LayerCount: 2
Fore
SplineSet
32 -73 m 1xa0
 38 -66 l 1
 55 -71 74 -74 92 -74 c 0
 148 -74 190 -45 190 -8 c 0
 190 35 158 53 84 53 c 1xc0
 79 58 l 1
 75 91 l 1
 118 100 l 1
 150 115 172 142 172 168 c 0
 172 194 155 210 127 210 c 0
 104 210 75 198 53 181 c 1
 46 181 l 1
 36 219 l 1
 45 226 105 263 152 263 c 0
 205 263 243 231 243 186 c 0
 243 151 215 116 171 96 c 1
 171 91 l 1
 230 75 260 45 260 1 c 0
 260 -61 167 -131 80 -131 c 0
 46 -131 33 -115 32 -73 c 1xa0
EndSplineSet
Validated: 1
EndChar

StartChar: four.sinf
Encoding: 8324 8324 150
Width: 318
Flags: HMW
HStem: -130 22G<169 169> -14 47 243 20G<191 191>
LayerCount: 2
Fore
SplineSet
10 -13 m 1
 12 22 l 1
 188 262 l 1
 191 263 l 1
 231 257 l 1
 231 33 l 1
 288 33 l 1
 293 26 l 1
 287 -19 l 1
 231 -17 l 1
 232 -66 236 -117 236 -117 c 1
 231 -123 l 1
 169 -130 l 1
 164 -124 l 1
 164 -124 168 -64 168 -16 c 1
 10 -13 l 1
162 161 m 1
 70 33 l 1
 168 33 l 1
 168 161 l 1
 162 161 l 1
EndSplineSet
Validated: 1
EndChar

StartChar: five.sinf
Encoding: 8325 8325 151
Width: 296
Flags: HMW
HStem: -131 57<77 115 77 117> 66 186 195 57 262 20G<263 263>
LayerCount: 2
Fore
SplineSet
254 8 m 0xb0
 254 -59 161 -131 73 -131 c 0
 40 -131 28 -115 25 -73 c 1
 31 -66 l 1
 49 -71 68 -74 86 -74 c 0
 144 -74 184 -44 184 -3 c 0
 184 40 144 62 54 66 c 1xd0
 48 73 l 1
 55 156 59 245 59 245 c 1
 65 250 l 1
 193 254 l 2
 218 255 226 261 233 280 c 1
 263 283 l 1
 247 196 l 1
 241 189 l 1
 241 189 175 195 101 195 c 1
 96 116 l 1
 206 105 254 71 254 8 c 0xb0
EndSplineSet
Validated: 1
EndChar

StartChar: six.sinf
Encoding: 8326 8326 152
Width: 319
Flags: HMW
HStem: -131 44<145 185 145 196> 56 49<146 216> 243 20G<254 254>
LayerCount: 2
Fore
SplineSet
270 231 m 1
 270 231 150 190 113 81 c 1
 116 77 l 1
 132 88 162 104 179 105 c 1
 252 105 291 52 291 -3 c 0
 291 -76 237 -131 155 -131 c 0
 79 -131 31 -73 31 7 c 0
 31 202 254 263 254 263 c 1
 260 259 l 1
 270 231 l 1
159 56 m 0
 133 56 110 43 100 36 c 1
 99 28 98 17 98 8 c 0
 98 -51 124 -87 166 -87 c 0
 204 -87 226 -62 226 -18 c 0
 226 23 200 56 159 56 c 0
EndSplineSet
Validated: 1
EndChar

StartChar: seven.sinf
Encoding: 8327 8327 153
Width: 295
Flags: HMW
HStem: -130 22G<123 131 123 123> 196 59 238 20G<46 46>
LayerCount: 2
Fore
SplineSet
131 -130 m 1xc0
 123 -130 l 1
 73 -116 l 1
 67 -100 l 1
 220 199 l 1
 121 194 l 2
 78 191 70 180 62 135 c 1
 30 131 l 1
 30 131 39 201 42 255 c 1xc0
 46 258 l 1xa0
 46 258 85 255 126 255 c 2
 266 255 l 1
 287 229 l 1
 217 91 180 4 150 -65 c 1
 131 -130 l 1xc0
EndSplineSet
Validated: 1
EndChar

StartChar: zero.numr
Encoding: 1114145 -1 154
Width: 360
Flags: HMW
HStem: 265 68<152 213 152 219> 589 71<146 208>
LayerCount: 2
Fore
SplineSet
172 265 m 0
 86 265 32 339 32 455 c 0
 32 577 96 659 189 659 c 0
 273 659 329 586 329 472 c 0
 329 350 265 265 172 265 c 0
183 333 m 0
 242 333 281 380 281 456 c 0
 281 537 239 589 176 589 c 0
 116 589 80 542 80 464 c 0
 80 384 121 333 183 333 c 0
EndSplineSet
Validated: 1
EndChar

StartChar: one.numr
Encoding: 1114146 -1 155
Width: 254
Flags: HMW
HStem: 266 22G<36 36> 584 20G<28 28 58 76> 639 20G<186 186>
LayerCount: 2
Fore
SplineSet
167 592 m 1
 164 535 161 406 161 353 c 0
 161 320 167 309 191 309 c 0
 206 309 224 311 224 311 c 1
 226 308 l 1
 219 271 l 1
 219 271 162 273 129 273 c 0
 91 273 36 266 36 266 c 1
 40 302 l 1
 80 305 98 316 98 354 c 2
 98 568 l 2
 98 600 88 604 65 604 c 0
 52 604 31 601 31 601 c 1
 28 604 l 1
 31 637 l 1
 39 638 74 642 106 647 c 0
 171 656 185 659 186 659 c 2
 191 644 l 1
 176 631 170 620 167 592 c 1
EndSplineSet
Validated: 1
EndChar

StartChar: two.numr
Encoding: 1114147 -1 156
Width: 336
Flags: HMW
HStem: 266 22G<31 31> 273 52<74 209> 599 60<135 157>
LayerCount: 2
Fore
SplineSet
31 266 m 1xa0
 25 292 l 1
 95 371 l 1
 159.071 448.871 193.021 509.252 193.021 551.187 c 0
 193.021 551.795 193.014 552.4 193 553 c 0
 193 584 174 599 140 599 c 0
 103 599 71 577 46 536 c 1
 39 536 l 1
 29 578 l 1
 56 624 111 659 159 659 c 0
 226 659 269 624 269 572 c 0
 269 520 232 458 122 331 c 1
 125 326 l 1
 209 326 l 2
 253 326 265 337 276 384 c 1
 315 388 l 1
 315 388 301 324 296 274 c 1
 287 268 l 1
 287 268 133 273 74 273 c 1x60
 31 266 l 1xa0
EndSplineSet
Validated: 1
EndChar

StartChar: three.numr
Encoding: 1114148 -1 157
Width: 300
Flags: HMW
HStem: 265 57<83 120 83 123> 450 210<84 178> 606 53<128 141>
LayerCount: 2
Fore
SplineSet
32 324 m 1xa0
 38 331 l 1
 55 326 74 323 92 323 c 0
 148 323 190 351 190 388 c 0
 190 431 158 450 84 450 c 1xc0
 79 455 l 1
 75 487 l 1
 118 497 l 1
 150 512 172 538 172 564 c 0
 172 590 155 606 127 606 c 0
 104 606 75 595 53 578 c 1
 46 578 l 1
 36 615 l 1
 45 622 105 659 152 659 c 0
 205 659 243 628 243 583 c 0
 243 548 215 513 171 493 c 1
 171 487 l 1
 230 471 260 441 260 397 c 0
 260 335 167 265 80 265 c 0
 46 265 33 282 32 324 c 1xa0
EndSplineSet
Validated: 1
EndChar

StartChar: four.numr
Encoding: 1114149 -1 158
Width: 318
Flags: HMW
HStem: 266 22G<169 169> 381 48 639 20G<191 191>
LayerCount: 2
Fore
SplineSet
10 383 m 1
 12 418 l 1
 188 658 l 1
 191 659 l 1
 231 653 l 1
 231 429 l 1
 288 429 l 1
 293 422 l 1
 287 377 l 1
 231 379 l 1
 232 330 236 280 236 280 c 1
 231 273 l 1
 169 266 l 1
 164 272 l 1
 164 272 168 332 168 380 c 1
 10 383 l 1
162 557 m 1
 70 429 l 1
 168 429 l 1
 168 557 l 1
 162 557 l 1
EndSplineSet
Validated: 1
EndChar

StartChar: five.numr
Encoding: 1114150 -1 159
Width: 296
Flags: HMW
HStem: 265 57<77 115 77 117> 462 186 591 57 658 20G<263 263>
LayerCount: 2
Fore
SplineSet
254 404 m 0xb0
 254 337 161 265 73 265 c 0
 40 265 28 282 25 324 c 1
 31 331 l 1
 49 326 68 323 86 323 c 0
 144 323 184 352 184 393 c 0
 184 436 144 458 54 462 c 1xd0
 48 469 l 1
 55 552 59 641 59 641 c 1
 65 646 l 1
 193 650 l 2
 218 651 226 657 233 676 c 1
 263 679 l 1
 247 592 l 1
 241 586 l 1
 241 586 175 591 101 591 c 1
 96 512 l 1
 206 501 254 467 254 404 c 0xb0
EndSplineSet
Validated: 1
EndChar

StartChar: six.numr
Encoding: 1114151 -1 160
Width: 319
Flags: HMW
HStem: 265 44<145 185 145 196> 453 49<146 216> 639 20G<254 254>
LayerCount: 2
Fore
SplineSet
270 628 m 1
 270 628 150 586 113 477 c 1
 116 473 l 1
 132 484 162 501 179 502 c 1
 252 502 291 448 291 393 c 0
 291 320 237 265 155 265 c 0
 79 265 31 323 31 403 c 0
 31 598 254 659 254 659 c 1
 260 655 l 1
 270 628 l 1
159 453 m 0
 133 453 110 439 100 432 c 1
 99 424 98 413 98 404 c 0
 98 345 124 309 166 309 c 0
 204 309 226 334 226 378 c 0
 226 419 200 453 159 453 c 0
EndSplineSet
Validated: 1
EndChar

StartChar: seven.numr
Encoding: 1114152 -1 161
Width: 295
Flags: HMW
HStem: 266 22G<123 131 123 123> 592 59 634 20G<46 46>
LayerCount: 2
Fore
SplineSet
131 266 m 1xc0
 123 266 l 1
 73 281 l 1
 67 296 l 1
 220 595 l 1
 121 590 l 2
 78 587 70 576 62 531 c 1
 30 527 l 1
 30 527 39 597 42 651 c 1xc0
 46 654 l 1xa0
 46 654 85 651 126 651 c 2
 266 651 l 1
 287 626 l 1
 217 488 180 401 150 332 c 1
 131 266 l 1xc0
EndSplineSet
Validated: 1
EndChar

StartChar: eight.numr
Encoding: 1114153 -1 162
Width: 334
Flags: HMW
HStem: 265 22G<125 196> 617 42<148 181>
LayerCount: 2
Fore
SplineSet
40 355 m 0
 40 412 89 443 118 456 c 1
 81 478 49 504 49 552 c 0
 49 608 102 659 175 659 c 0
 230 659 284 627 284 570 c 0
 284 523 248 494 221 480 c 1
 260 460 295 432 295 384 c 0
 295 317 236 265 157 265 c 0
 94 265 40 299 40 355 c 0
170 305 m 0
 205 305 232 328 232 362 c 0
 232 400 190 419 147 439 c 1
 130 430 100 412 100 372 c 0
 100 336 129 305 170 305 c 0
112 569 m 0
 112 534 149 516 189 497 c 1
 203 507 221 524 221 556 c 0
 221 596 198 617 165 617 c 0
 132 617 112 595 112 569 c 0
EndSplineSet
Validated: 1
EndChar

StartChar: nine.numr
Encoding: 1114154 -1 163
Width: 319
Flags: HMW
HStem: 266 22G<66 66> 424 49<104 174> 616 43<135 175>
LayerCount: 2
Fore
SplineSet
49 298 m 1
 49 298 170 339 207 449 c 1
 204 452 l 1
 188 442 158 425 140 424 c 1
 67 424 29 477 29 531 c 0
 29 604 83 659 166 659 c 0
 241 659 289 602 289 522 c 0
 289 327 66 266 66 266 c 1
 60 269 l 1
 49 298 l 1
161 473 m 0
 187 473 210 487 219 493 c 1
 220 502 221 511 221 521 c 0
 221 579 196 616 154 616 c 0
 116 616 93 592 93 548 c 0
 93 506 120 473 161 473 c 0
EndSplineSet
Validated: 1
EndChar

StartChar: zero.dnom
Encoding: 1114155 -1 164
Width: 360
Flags: HMW
HStem: -8 68<152 213 152 219> 315 71<146 208>
LayerCount: 2
Fore
SplineSet
172 -8 m 0
 86 -8 32 65 32 181 c 0
 32 303 96 386 189 386 c 0
 273 386 329 313 329 199 c 0
 329 77 265 -8 172 -8 c 0
183 59 m 0
 242 59 281 106 281 182 c 0
 281 263 239 315 176 315 c 0
 116 315 80 268 80 190 c 0
 80 110 121 59 183 59 c 0
EndSplineSet
Validated: 1
EndChar

StartChar: one.dnom
Encoding: 1114156 -1 165
Width: 254
Flags: HMW
HStem: -7 22G<36 36> 0 22G<110 145> 366 20G<186 186>
LayerCount: 2
Fore
SplineSet
167 318 m 1xa0
 164 261 161 133 161 80 c 0
 161 47 167 36 191 36 c 0
 206 36 224 38 224 38 c 1
 226 35 l 1
 219 -2 l 1
 219 -2 162 0 129 0 c 0x60
 91 0 36 -7 36 -7 c 1
 40 29 l 1
 80 32 98 43 98 81 c 2
 98 295 l 2
 98 327 88 331 65 331 c 0
 52 331 31 328 31 328 c 1
 28 331 l 1
 31 364 l 1
 39 365 74 369 106 374 c 0
 171 383 185 386 186 386 c 2
 191 371 l 1
 176 358 170 346 167 318 c 1xa0
EndSplineSet
Validated: 1
EndChar

StartChar: two.dnom
Encoding: 1114157 -1 166
Width: 336
Flags: HMW
HStem: -7 22G<31 31> 0 52<74 209> 326 60<135 157>
LayerCount: 2
Fore
SplineSet
31 -7 m 1xa0
 25 18 l 1
 95 97 l 1
 159.071 174.87 193.021 236.224 193.021 278.186 c 0
 193.021 278.795 193.014 279.4 193 280 c 0
 193 311 174 326 140 326 c 0
 103 326 71 303 46 262 c 1
 39 262 l 1
 29 304 l 1
 56 350 111 386 159 386 c 0
 226 386 269 351 269 299 c 0
 269 247 232 184 122 57 c 1
 125 52 l 1
 209 52 l 2
 253 52 265 64 276 111 c 1
 315 115 l 1
 315 115 301 51 296 1 c 1
 287 -5 l 1
 287 -5 133 0 74 0 c 1x60
 31 -7 l 1xa0
EndSplineSet
Validated: 1
EndChar

StartChar: three.dnom
Encoding: 1114158 -1 167
Width: 300
Flags: HMW
HStem: -8 57<83 120 83 123> 176 210<84 178> 333 53<128 141>
LayerCount: 2
Fore
SplineSet
32 50 m 1xa0
 38 57 l 1
 55 52 74 49 92 49 c 0
 148 49 190 78 190 115 c 0
 190 158 158 176 84 176 c 1xc0
 79 181 l 1
 75 214 l 1
 118 223 l 1
 150 238 172 265 172 291 c 0
 172 317 155 333 127 333 c 0
 104 333 75 321 53 304 c 1
 46 304 l 1
 36 342 l 1
 45 349 105 386 152 386 c 0
 205 386 243 354 243 309 c 0
 243 274 215 239 171 219 c 1
 171 214 l 1
 230 198 260 168 260 124 c 0
 260 62 167 -8 80 -8 c 0
 46 -8 33 8 32 50 c 1xa0
EndSplineSet
Validated: 1
EndChar

StartChar: four.dnom
Encoding: 1114159 -1 168
Width: 318
Flags: HMW
HStem: -7 22G<169 169> 108 48 366 20G<191 191>
LayerCount: 2
Fore
SplineSet
10 110 m 1
 12 144 l 1
 188 385 l 1
 191 386 l 1
 231 380 l 1
 231 156 l 1
 288 156 l 1
 293 148 l 1
 287 103 l 1
 231 105 l 1
 232 56 236 6 236 6 c 1
 231 0 l 1
 169 -7 l 1
 164 -1 l 1
 164 -1 168 58 168 106 c 1
 10 110 l 1
162 284 m 1
 70 156 l 1
 168 156 l 1
 168 284 l 1
 162 284 l 1
EndSplineSet
Validated: 1
EndChar

StartChar: five.dnom
Encoding: 1114160 -1 169
Width: 296
Flags: HMW
HStem: -8 57<77 115 77 117> 188 186 317 57 385 20G<263 263>
LayerCount: 2
Fore
SplineSet
254 131 m 0xb0
 254 64 161 -8 73 -8 c 0
 40 -8 28 8 25 50 c 1
 31 57 l 1
 49 52 68 49 86 49 c 0
 144 49 184 79 184 120 c 0
 184 163 144 184 54 188 c 1xd0
 48 196 l 1
 55 279 59 368 59 368 c 1
 65 373 l 1
 193 377 l 2
 218 378 226 383 233 402 c 1
 263 406 l 1
 247 318 l 1
 241 312 l 1
 241 312 175 317 101 317 c 1
 96 239 l 1
 206 228 254 194 254 131 c 0xb0
EndSplineSet
Validated: 1
EndChar

StartChar: six.dnom
Encoding: 1114161 -1 170
Width: 319
Flags: HMW
HStem: -8 44<145 185 145 196> 179 49<146 216> 366 20G<254 254>
LayerCount: 2
Fore
SplineSet
270 354 m 1
 270 354 150 313 113 204 c 1
 116 200 l 1
 132 211 162 227 179 228 c 1
 252 228 291 175 291 120 c 0
 291 47 237 -8 155 -8 c 0
 79 -8 31 50 31 130 c 0
 31 325 254 386 254 386 c 1
 260 382 l 1
 270 354 l 1
159 179 m 0
 133 179 110 166 100 159 c 1
 99 151 98 140 98 131 c 0
 98 72 124 36 166 36 c 0
 204 36 226 60 226 104 c 0
 226 145 200 179 159 179 c 0
EndSplineSet
Validated: 1
EndChar

StartChar: seven.dnom
Encoding: 1114162 -1 171
Width: 295
Flags: HMW
HStem: -7 22G<123 131 123 123> 318 59 360 20G<46 46>
LayerCount: 2
Fore
SplineSet
131 -7 m 1xc0
 123 -7 l 1
 73 7 l 1
 67 23 l 1
 220 322 l 1
 121 316 l 2
 78 313 70 303 62 258 c 1
 30 254 l 1
 30 254 39 324 42 378 c 1xc0
 46 381 l 1xa0
 46 381 85 378 126 378 c 2
 266 378 l 1
 287 352 l 1
 217 214 180 127 150 58 c 1
 131 -7 l 1xc0
EndSplineSet
Validated: 1
EndChar

StartChar: eight.dnom
Encoding: 1114163 -1 172
Width: 334
Flags: HMW
HStem: -8 22G<125 196> 344 42<148 181>
LayerCount: 2
Fore
SplineSet
40 82 m 0
 40 139 89 169 118 182 c 1
 81 204 49 231 49 279 c 0
 49 335 102 386 175 386 c 0
 230 386 284 354 284 297 c 0
 284 250 248 221 221 207 c 1
 260 187 295 159 295 111 c 0
 295 44 236 -8 157 -8 c 0
 94 -8 40 26 40 82 c 0
170 32 m 0
 205 32 232 55 232 89 c 0
 232 127 190 146 147 166 c 1
 130 157 100 138 100 98 c 0
 100 62 129 32 170 32 c 0
112 296 m 0
 112 261 149 242 189 223 c 1
 203 233 221 251 221 283 c 0
 221 323 198 344 165 344 c 0
 132 344 112 322 112 296 c 0
EndSplineSet
Validated: 1
EndChar

StartChar: nine.dnom
Encoding: 1114164 -1 173
Width: 319
Flags: HMW
HStem: -7 22G<66 66> 151 49<104 174> 343 43<135 175>
LayerCount: 2
Fore
SplineSet
49 25 m 1
 49 25 170 65 207 175 c 1
 204 178 l 1
 188 168 158 152 140 151 c 1
 67 151 29 204 29 258 c 0
 29 331 83 386 166 386 c 0
 241 386 289 329 289 249 c 0
 289 54 66 -7 66 -7 c 1
 60 -4 l 1
 49 25 l 1
161 200 m 0
 187 200 210 213 219 219 c 1
 220 228 221 238 221 248 c 0
 221 306 196 343 154 343 c 0
 116 343 93 318 93 274 c 0
 93 232 120 200 161 200 c 0
EndSplineSet
Validated: 1
EndChar

StartChar: five.sups
Encoding: 8309 8309 174
Width: 296
Flags: HMW
HStem: 351 57<77 115 77 117> 548 186 677 57 744 20G<263 263>
LayerCount: 2
Fore
SplineSet
254 490 m 0xb0
 254 423 161 351 73 351 c 0
 40 351 28 368 25 410 c 1
 31 417 l 1
 49 412 68 409 86 409 c 0
 144 409 184 438 184 479 c 0
 184 522 144 544 54 548 c 1xd0
 48 555 l 1
 55 638 59 727 59 727 c 1
 65 732 l 1
 193 736 l 2
 218 737 226 743 233 762 c 1
 263 765 l 1
 247 678 l 1
 241 672 l 1
 241 672 175 677 101 677 c 1
 96 598 l 1
 206 587 254 553 254 490 c 0xb0
EndSplineSet
Validated: 1
EndChar

StartChar: six.sups
Encoding: 8310 8310 175
Width: 319
Flags: HMW
HStem: 351 44<145 185 145 196> 539 49<146 216> 725 20G<254 254>
LayerCount: 2
Fore
SplineSet
270 714 m 1
 270 714 150 672 113 563 c 1
 116 559 l 1
 132 570 162 587 179 588 c 1
 252 588 291 534 291 479 c 0
 291 406 237 351 155 351 c 0
 79 351 31 409 31 489 c 0
 31 684 254 745 254 745 c 1
 260 741 l 1
 270 714 l 1
159 539 m 0
 133 539 110 525 100 518 c 1
 99 510 98 499 98 490 c 0
 98 431 124 395 166 395 c 0
 204 395 226 420 226 464 c 0
 226 505 200 539 159 539 c 0
EndSplineSet
Validated: 1
EndChar

StartChar: seven.sups
Encoding: 8311 8311 176
Width: 295
Flags: HMW
HStem: 352 22G<123 131 123 123> 678 59 720 20G<46 46>
LayerCount: 2
Fore
SplineSet
131 352 m 1xc0
 123 352 l 1
 73 367 l 1
 67 382 l 1
 220 681 l 1
 121 676 l 2
 78 673 70 662 62 617 c 1
 30 613 l 1
 30 613 39 683 42 737 c 1xc0
 46 740 l 1xa0
 46 740 85 737 126 737 c 2
 266 737 l 1
 287 712 l 1
 217 574 180 487 150 418 c 1
 131 352 l 1xc0
EndSplineSet
Validated: 1
EndChar

StartChar: eight.sups
Encoding: 8312 8312 177
Width: 334
Flags: HMW
HStem: 351 22G<125 196> 703 42<148 181>
LayerCount: 2
Fore
SplineSet
40 441 m 0
 40 498 89 529 118 542 c 1
 81 564 49 590 49 638 c 0
 49 694 102 745 175 745 c 0
 230 745 284 713 284 656 c 0
 284 609 248 580 221 566 c 1
 260 546 295 518 295 470 c 0
 295 403 236 351 157 351 c 0
 94 351 40 385 40 441 c 0
170 391 m 0
 205 391 232 415 232 449 c 0
 232 487 190 505 147 525 c 1
 130 516 100 498 100 458 c 0
 100 422 129 391 170 391 c 0
112 655 m 0
 112 620 149 602 189 583 c 1
 203 593 221 610 221 642 c 0
 221 682 198 703 165 703 c 0
 132 703 112 681 112 655 c 0
EndSplineSet
Validated: 1
EndChar

StartChar: nine.sups
Encoding: 8313 8313 178
Width: 319
Flags: HMW
HStem: 352 22G<66 66> 510 49<104 174> 702 43<135 175>
LayerCount: 2
Fore
SplineSet
49 384 m 1
 49 384 170 425 207 535 c 1
 204 538 l 1
 188 528 158 511 140 510 c 1
 67 510 29 563 29 617 c 0
 29 690 83 745 166 745 c 0
 241 745 289 688 289 608 c 0
 289 413 66 352 66 352 c 1
 60 355 l 1
 49 384 l 1
161 559 m 0
 187 559 210 573 219 579 c 1
 220 588 221 597 221 607 c 0
 221 665 196 702 154 702 c 0
 116 702 93 678 93 634 c 0
 93 592 120 559 161 559 c 0
EndSplineSet
Validated: 1
EndChar

StartChar: guillemotright
Encoding: 187 187 179
Width: 437
Flags: HMW
HStem: 47 22G<71 71 241 241> 389 20G<71 71 241 241>
LayerCount: 2
Fore
SplineSet
241 47 m 1
 218 62 l 1
 217 73 l 1
 327 225 l 1
 217 384 l 1
 218 394 l 1
 241 410 l 1
 319 330 417 240 417 240 c 1
 417 224 l 1
 417 224 319 131 241 47 c 1
71 47 m 1
 48 62 l 1
 47 73 l 1
 157 225 l 1
 47 384 l 1
 48 394 l 1
 71 410 l 1
 149 330 247 240 247 240 c 1
 247 224 l 1
 247 224 149 131 71 47 c 1
EndSplineSet
Validated: 1
EndChar

StartChar: onequarter
Encoding: 188 188 180
Width: 701
Flags: HMW
HStem: -97 22G<114 114> 108 48 156 118 584 20G<28 28 58 76> 639 20G<186 186> 674 20G<557 557>
LayerCount: 2
Fore
SplineSet
167 592 m 1xbc
 164 535 161 406 161 353 c 0
 161 320 167 309 191 309 c 0
 206 309 224 311 224 311 c 1
 226 308 l 1
 219 271 l 1
 219 271 162 273 129 273 c 0
 91 273 36 266 36 266 c 1
 40 302 l 1
 80 305 98 316 98 354 c 2
 98 568 l 2
 98 600 88 604 65 604 c 0
 52 604 31 601 31 601 c 1
 28 604 l 1
 31 637 l 1
 39 638 74 642 106 647 c 0
 171 656 185 659 186 659 c 2
 191 644 l 1
 176 631 170 620 167 592 c 1xbc
597 675 m 1
 602 660 l 1
 602 660 424 395 334 251 c 0
 242 103 114 -97 114 -97 c 1
 75 -78 l 1
 70 -66 l 1
 70 -66 204 139 295 282 c 2
 557 694 l 1
 597 675 l 1
393 110 m 1
 395 144 l 1
 571 385 l 1
 574 386 l 1
 614 380 l 1
 614 156 l 1
 671 156 l 1
 676 148 l 1
 670 103 l 1
 614 105 l 1
 615 56 618 6 618 6 c 1
 614 0 l 1
 552 -7 l 1
 547 -1 l 1
 547 -1 551 58 551 106 c 1
 393 110 l 1
545 284 m 1
 453 156 l 1
 551 156 l 1
 551 284 l 1
 545 284 l 1
EndSplineSet
Validated: 1
EndChar

StartChar: onehalf
Encoding: 189 189 181
Width: 730
Flags: HMW
HStem: -97 22G<114 114> 0 52<467 602> 584 20G<28 28 58 76> 639 20G<186 186> 674 20G<557 557>
LayerCount: 2
Fore
SplineSet
167 592 m 1
 164 535 161 406 161 353 c 0
 161 320 167 309 191 309 c 0
 206 309 224 311 224 311 c 1
 226 308 l 1
 219 271 l 1
 219 271 162 273 129 273 c 0
 91 273 36 266 36 266 c 1
 40 302 l 1
 80 305 98 316 98 354 c 2
 98 568 l 2
 98 600 88 604 65 604 c 0
 52 604 31 601 31 601 c 1
 28 604 l 1
 31 637 l 1
 39 638 74 642 106 647 c 0
 171 656 185 659 186 659 c 2
 191 644 l 1
 176 631 170 620 167 592 c 1
597 675 m 1
 602 660 l 1
 602 660 424 395 334 251 c 0
 242 103 114 -97 114 -97 c 1
 75 -78 l 1
 70 -66 l 1
 70 -66 204 139 295 282 c 2
 557 694 l 1
 597 675 l 1
424 -7 m 1
 418 18 l 1
 488 97 l 1
 552.071 174.87 586.021 236.224 586.021 278.186 c 0
 586.021 278.795 586.014 279.4 586 280 c 0
 586 311 568 326 534 326 c 0
 497 326 464 303 439 262 c 1
 432 262 l 1
 422 304 l 1
 449 350 504 386 552 386 c 0
 619 386 663 351 663 299 c 0
 663 247 625 184 515 57 c 1
 518 52 l 1
 602 52 l 2
 646 52 659 64 670 111 c 1
 709 115 l 1
 709 115 694 51 689 1 c 1
 680 -5 l 1
 680 -5 526 0 467 0 c 1
 424 -7 l 1
EndSplineSet
Validated: 1
EndChar

StartChar: threequarters
Encoding: 190 190 182
Width: 705
Flags: HMW
HStem: -97 22G<118 118> 108 48 265 57<83 120 83 123> 450 210<84 178> 606 53<128 141> 674 20G<561 561>
LayerCount: 2
Fore
SplineSet
32 324 m 1xec
 38 331 l 1
 55 326 74 323 92 323 c 0
 148 323 190 351 190 388 c 0
 190 431 158 450 84 450 c 1xf4
 79 455 l 1
 75 487 l 1
 118 497 l 1
 150 512 172 538 172 564 c 0
 172 590 155 606 127 606 c 0
 104 606 75 595 53 578 c 1
 46 578 l 1
 36 615 l 1
 45 622 105 659 152 659 c 0
 205 659 243 628 243 583 c 0
 243 548 215 513 171 493 c 1
 171 487 l 1
 230 471 260 441 260 397 c 0
 260 335 167 265 80 265 c 0
 46 265 33 282 32 324 c 1xec
601 675 m 1
 606 660 l 1
 606 660 428 395 338 251 c 0
 246 103 118 -97 118 -97 c 1
 79 -78 l 1
 74 -66 l 1
 74 -66 208 139 299 282 c 2
 561 694 l 1
 601 675 l 1
397 110 m 1
 399 144 l 1
 575 385 l 1
 579 386 l 1
 618 380 l 1
 618 156 l 1
 675 156 l 1
 680 148 l 1
 674 103 l 1
 618 105 l 1
 619 56 623 6 623 6 c 1
 618 0 l 1
 556 -7 l 1
 551 -1 l 1
 551 -1 555 58 555 106 c 1
 397 110 l 1
549 284 m 1
 457 156 l 1
 555 156 l 1
 555 284 l 1
 549 284 l 1
EndSplineSet
Validated: 1
EndChar

StartChar: uni2300
Encoding: 8960 8960 183
Width: 653
Flags: W
HStem: 163.575 59.9541<257.752 423.424> 548.438 59.8652<257.083 420.03>
VStem: 118.1 58.8467<315.564 466.503> 502.771 59.5693<303.581 466.604>
LayerCount: 2
Fore
SplineSet
529.5 499.482421875 m 5
 551.548828125 463.813476562 562.340820312 423.98828125 562.340820312 384.43359375 c 4
 562.340820312 319.153320312 532.94140625 254.614257812 476.21875 210.732421875 c 4
 435.104492188 178.92578125 386.98828125 163.575195312 339.455078125 163.575195312 c 4
 281.668945312 163.575195312 224.748046875 186.259765625 182.3125 229.638671875 c 5
 111 160 l 5
 68 214 l 5
 146.21875 277.763671875 l 5
 127.268554688 311.38671875 118.099609375 348.271484375 118.099609375 384.938476562 c 4
 118.099609375 451.358398438 148.17578125 517.0625 204.65625 561.357421875 c 4
 245.064453125 593.047851562 292.41015625 608.303710938 339.456054688 608.303710938 c 4
 394.46875 608.303710938 449.071289062 587.442382812 491.6875 547.607421875 c 5
 579 633 l 5
 624 575 l 5
 529.5 499.482421875 l 5
227.838867188 267.05078125 m 5
 258.888671875 238.53515625 299.865234375 223.529296875 341.0703125 223.529296875 c 4
 376.228515625 223.529296875 411.555664062 234.528320312 440.698242188 257.48828125 c 4
 481.380859375 289.541015625 502.771484375 337.669921875 502.771484375 386.154296875 c 4
 502.771484375 414.079101562 495.700195312 442.111328125 481.182617188 467.67578125 c 5
 227.838867188 267.05078125 l 5
445.698242188 507.72265625 m 5
 415.04296875 534.375976562 377.009765625 548.438476562 338.662109375 548.438476562 c 4
 304.272460938 548.438476562 269.618164062 537.5234375 240.291992188 514.61328125 c 4
 198.869140625 482.251953125 176.946289062 433.053710938 176.946289062 384.004882812 c 4
 176.946289062 360.387695312 182.581054688 336.802734375 194.135742188 314.98828125 c 5
 445.698242188 507.72265625 l 5
EndSplineSet
Validated: 524289
EndChar

StartChar: uni266D
Encoding: 9837 9837 184
Width: 516
Flags: W
HStem: 347 34<208.463 293.21> 736 20G<143 207>
VStem: 143 64<381.822 756> 143 37<80.2939 330.63> 318 96<207.829 326.949>
LayerCount: 2
Fore
SplineSet
143 756 m 1xe8
 207 756 l 1
 207 402 l 2xe8
 207 393 222 381 236 381 c 0
 238 381 240 381 242 382 c 0
 265 392 287 397 307 397 c 0
 365 397 414 353 414 285 c 0
 414 178 300 111 221 47 c 2
 163 0 l 2
 146 -14 143 -15 143 10 c 2
 143 308 l 1
 143 333 l 1xd8
 143 756 l 1xe8
251 347 m 0
 224 347 200 335 180 317 c 1
 180 98 l 2xd8
 180 85.9512 191.909 80.1403 200.78 80.1403 c 0
 203.689 80.1403 206.271 80.7653 208 82 c 0
 272 127 318 173 318 247 c 0
 318 318 290 347 251 347 c 0
EndSplineSet
Validated: 1
EndChar

StartChar: uni266F
Encoding: 9839 9839 185
Width: 576
Flags: W
VStem: 228 37<-74 108.625 240.83 406.086 534.916 731> 374 37<-43 151.34 283.833 446.123 577.916 762>
LayerCount: 2
Fore
SplineSet
164 392 m 5
 164 500 l 5
 228 519 l 5
 228 731 l 5
 265 731 l 5
 265 551 l 6
 265 545 273 533 282 535 c 6
 374 562 l 5
 374 762 l 5
 411 762 l 5
 411 594 l 6
 411 587 420 576 429 578 c 6
 475 591 l 5
 475 483 l 5
 411 464 l 5
 411 299 l 6
 411 287 425 282 434 284 c 6
 475 296 l 5
 475 188 l 5
 411 170 l 5
 411 -43 l 5
 374 -43 l 5
 374 138 l 6
 374 147 361 155 351 151 c 6
 265 127 l 5
 265 -74 l 5
 228 -74 l 5
 228 95 l 6
 228 106 217 113 207 109 c 6
 164 97 l 5
 164 205 l 5
 228 224 l 5
 228 393 l 6
 228 399 219 408 209 406 c 6
 164 392 l 5
265 421 m 5
 265 259 l 6
 265 250 278 239 287 241 c 6
 374 267 l 5
 374 430 l 6
 374 440 358 448 351 446 c 6
 265 421 l 5
EndSplineSet
Validated: 1
EndChar

StartChar: uni0394
Encoding: 916 916 186
Width: 657
VWidth: 0
Flags: W
HStem: 160.474 62.125<194.888 557.069>
LayerCount: 2
Fore
SplineSet
111.243164062 162.162109375 m 0
 109.375 163.23828125 107.78515625 164.797851562 106.66015625 166.723632812 c 0
 104.442382812 170.62109375 104.428710938 175.35546875 106.66796875 179.234375 c 2
 365.129882812 626.90234375 l 2
 367.370117188 630.78125 371.502929688 633.184570312 375.961914062 633.165039062 c 0
 380.448242188 633.193359375 384.567382812 630.814453125 386.813476562 626.963867188 c 2
 645.225585938 179.29296875 l 2
 647.443359375 175.392578125 647.45703125 170.66015625 645.217773438 166.780273438 c 0
 642.9765625 162.901367188 638.845703125 160.498046875 634.385742188 160.517578125 c 2
 117.484375 160.473632812 l 2
 115.254882812 160.484375 113.111328125 161.08203125 111.243164062 162.162109375 c 0
375.963867188 536.229492188 m 5
 194.887695312 222.598632812 l 5
 557.069335938 222.580078125 l 5
 375.963867188 536.229492188 l 5
EndSplineSet
Validated: 524289
EndChar

StartChar: minus
Encoding: 8722 8722 187
Width: 381
Flags: W
HStem: 285 91
VStem: 87 258
LayerCount: 2
Fore
SplineSet
338 376 m 1
 345 367 l 1
 340 312 l 1
 94 285 l 1
 87 293 l 1
 93 346 l 1
 271 367 l 2
 318 372 338 376 338 376 c 1
EndSplineSet
Validated: 1
EndChar
